<?xml version="1.0" encoding="UTF-8"?>
<svg width="99px" height="85px" viewBox="0 0 99 85" version="1.1" xmlns="http://www.w3.org/2000/svg" xmlns:xlink="http://www.w3.org/1999/xlink">
    <!-- Generator: Sketch 46.2 (44496) - http://www.bohemiancoding.com/sketch -->
    <title>html イラスト</title>
    <desc>Created with Sketch.</desc>
    <defs></defs>
    <g id="レッスン一覧---コース一覧（/languages）" stroke="none" stroke-width="1" fill="none" fill-rule="evenodd">
        <g id="Sass-目標物" transform="translate(-351.000000, -541.000000)" fill-rule="nonzero">
            <g id="コース一覧" transform="translate(290.000000, 466.000000)">
                <g id="コースカード_HTML">
                    <g id="html-イラスト" transform="translate(61.000000, 75.000000)">
                        <path d="M87,47.5 C87,68.2103892 70.4344275,85 49.999605,85 C29.5655725,85 13,68.2103892 13,47.5 C13,26.7888101 29.5655725,10 49.999605,10 C70.4344275,10 87,26.7888101 87,47.5" id="Fill-1" fill="#07B2AD"></path>
                        <path d="M73.7016165,33 L27.2991708,33 C26.5826584,33 26,33.5872348 26,34.3076079 L26,75.9093514 C32.4076681,81.3188856 40.6664578,85 49.6842782,85 C59.4886875,85 68.3939131,81.6033894 75,75.3213241 L75,34.3076079 C75,33.5872348 74.4173416,33 73.7016165,33" id="Fill-2" fill="#FFFFFF"></path>
                        <path d="M70.6124663,54 L52.3875337,54 C52.1736151,54 52,53.777 52,53.5 C52,53.224 52.1736151,53 52.3875337,53 L70.6124663,53 C70.8263849,53 71,53.224 71,53.5 C71,53.777 70.8263849,54 70.6124663,54" id="Fill-3" fill="#068989"></path>
                        <path d="M75,42 L26,42 L26,34.6417858 C26,33.7353505 26.736996,33 27.6464302,33 L73.3535698,33 C74.263004,33 75,33.7353505 75,34.6417858 L75,42" id="Fill-4" fill="#24D3C6"></path>
                        <path d="M72,7 C72,7.55212355 71.5523396,8 71.0004824,8 C70.4476604,8 70,7.55212355 70,7 C70,6.44787645 70.4476604,6 71.0004824,6 C71.5523396,6 72,6.44787645 72,7" id="Fill-5" fill="#068989"></path>
                        <path d="M13,22.0004824 C13,22.5523396 12.5523396,23 11.9995176,23 C11.4476604,23 11,22.5523396 11,22.0004824 C11,21.4476604 11.4476604,21 11.9995176,21 C12.5523396,21 13,21.4476604 13,22.0004824" id="Fill-6" fill="#068989"></path>
                        <path d="M52,10.5004455 C52,11.3290763 51.3281853,12 50.5004455,12 C49.6718147,12 49,11.3290763 49,10.5004455 C49,9.67181467 49.6718147,9 50.5004455,9 C51.3281853,9 52,9.67181467 52,10.5004455" id="Fill-7" fill="#068989"></path>
                        <path d="M15,47.5004455 C15,48.3281853 14.3281853,49 13.5004455,49 C12.6718147,49 12,48.3281853 12,47.5004455 C12,46.6718147 12.6718147,46 13.5004455,46 C14.3281853,46 15,46.6718147 15,47.5004455" id="Fill-8" fill="#068989"></path>
                        <path d="M89,47.5004455 C89,48.3281853 88.3281853,49 87.4995545,49 C86.6718147,49 86,48.3281853 86,47.5004455 C86,46.6718147 86.6718147,46 87.4995545,46 C88.3281853,46 89,46.6718147 89,47.5004455" id="Fill-9" fill="#068989"></path>
                        <path d="M73.600505,42 L26.3986976,42 C26.1786165,42 26,41.776 26,41.499 C26,41.223 26.1786165,41 26.3986976,41 L73.600505,41 C73.8213835,41 74,41.223 74,41.499 C74,41.776 73.8213835,42 73.600505,42" id="Fill-10" fill="#068989"></path>
                        <path d="M7.61312287,31 L3.38687713,31 C3.17332095,31 3,30.777 3,30.5 C3,30.224 3.17332095,30 3.38687713,30 L7.61312287,30 C7.82667905,30 8,30.224 8,30.5 C8,30.777 7.82667905,31 7.61312287,31" id="Fill-11" fill="#068989"></path>
                        <path d="M5.5,33 C5.224,33 5,32.826679 5,32.6131229 L5,28.3868771 C5,28.1725472 5.224,28 5.5,28 C5.777,28 6,28.1725472 6,28.3868771 L6,32.6131229 C6,32.826679 5.777,33 5.5,33" id="Fill-12" fill="#068989"></path>
                        <path d="M97.6131229,62 L93.3868771,62 C93.173321,62 93,61.776 93,61.5 C93,61.224 93.173321,61 93.3868771,61 L97.6131229,61 C97.826679,61 98,61.224 98,61.5 C98,61.776 97.826679,62 97.6131229,62" id="Fill-13" fill="#068989"></path>
                        <path d="M95.4995005,64 C95.2237762,64 95,63.8274528 95,63.6138966 L95,59.3868771 C95,59.1725472 95.2237762,59 95.4995005,59 C95.7762238,59 96,59.1725472 96,59.3868771 L96,63.6138966 C96,63.8274528 95.7762238,64 95.4995005,64" id="Fill-14" fill="#068989"></path>
                        <path d="M35.5,2 C35.223,2 35,1.81379884 35,1.58354115 L35,0.415627598 C35,0.186201164 35.223,0 35.5,0 C35.776,0 36,0.186201164 36,0.415627598 L36,1.58354115 C36,1.81379884 35.776,2 35.5,2" id="Fill-15" fill="#068989"></path>
                        <path d="M35.5,6 C35.223,6 35,5.81372141 35,5.58419958 L35,4.41580042 C35,4.18544699 35.223,4 35.5,4 C35.776,4 36,4.18544699 36,4.41580042 L36,5.58419958 C36,5.81372141 35.776,6 35.5,6" id="Fill-16" fill="#068989"></path>
                        <path d="M38.5841996,4 L37.4158004,4 C37.1862786,4 37,3.776 37,3.5 C37,3.224 37.1862786,3 37.4158004,3 L38.5841996,3 C38.814553,3 39,3.224 39,3.5 C39,3.776 38.814553,4 38.5841996,4" id="Fill-17" fill="#068989"></path>
                        <path d="M34.5843724,4 L33.4164589,4 C33.1862012,4 33,3.776 33,3.5 C33,3.224 33.1862012,3 33.4164589,3 L34.5843724,3 C34.8137988,3 35,3.224 35,3.5 C35,3.776 34.8137988,4 34.5843724,4" id="Fill-18" fill="#068989"></path>
                        <path d="M36.5014416,3 C36.3730726,3 36.2447035,2.95083406 36.1474238,2.85250219 C35.9508587,2.65684184 35.9508587,2.33876834 36.1474238,2.14310799 L37.1442898,1.14674527 C37.3398521,0.951084912 37.6567632,0.951084912 37.8533283,1.14674527 C38.0488906,1.34240562 38.0488906,1.66047912 37.8533283,1.85613947 L36.8564623,2.85250219 C36.7581798,2.95083406 36.6298107,3 36.5014416,3" id="Fill-19" fill="#068989"></path>
                        <path d="M37.4983076,6 C37.3699386,6 37.2415695,5.95085872 37.1442898,5.85257616 L36.1474238,4.85571017 C35.9508587,4.66014793 35.9508587,4.34223392 36.1474238,4.14667168 C36.3429861,3.95110944 36.6598972,3.95110944 36.8564623,4.14667168 L37.8533283,5.14353767 C38.0488906,5.3401028 38.0488906,5.65701392 37.8533283,5.85257616 C37.7550458,5.95085872 37.6266767,6 37.4983076,6" id="Fill-20" fill="#068989"></path>
                        <path d="M34.4980559,3 C34.3696225,3 34.241189,2.95083406 34.1438605,2.85250219 L33.1474978,1.85613947 C32.9508341,1.66047912 32.9508341,1.34240562 33.1474978,1.14674527 C33.3431582,0.951084912 33.6612317,0.951084912 33.856892,1.14674527 L34.8532547,2.14310799 C35.0489151,2.33876834 35.0489151,2.65684184 34.8532547,2.85250219 C34.7549229,2.95083406 34.6264894,3 34.4980559,3" id="Fill-21" fill="#068989"></path>
                        <path d="M33.5016932,6 C33.3732598,6 33.2448263,5.95085872 33.1474978,5.85257616 C32.9508341,5.65701392 32.9508341,5.3401028 33.1474978,5.14353767 L34.1438605,4.14667168 C34.3395209,3.95110944 34.6575944,3.95110944 34.8532547,4.14667168 C35.0489151,4.34223392 35.0489151,4.66014793 34.8532547,4.85571017 L33.856892,5.85257616 C33.7585601,5.95085872 33.6301267,6 33.5016932,6" id="Fill-22" fill="#068989"></path>
                        <path d="M78.0003842,9 C76.8975985,9 76,8.10257395 76,7 C76,5.89742605 76.8975985,5 78.0003842,5 C79.1024015,5 80,5.89742605 80,7 C80,8.10257395 79.1024015,9 78.0003842,9 L78.0003842,9 Z M78.0003842,5.76834422 C77.3210375,5.76834422 76.7684918,6.32078371 76.7684918,7 C76.7684918,7.67921629 77.3210375,8.23165578 78.0003842,8.23165578 C78.6789625,8.23165578 79.2315082,7.67921629 79.2315082,7 C79.2315082,6.32078371 78.6789625,5.76834422 78.0003842,5.76834422 L78.0003842,5.76834422 Z" id="Fill-23" fill="#068989"></path>
                        <path d="M81.613063,14 L77.386937,14 C77.1725739,14 77,13.776 77,13.5 C77,13.223 77.1725739,13 77.386937,13 L81.613063,13 C81.8274261,13 82,13.223 82,13.5 C82,13.776 81.8274261,14 81.613063,14" id="Fill-24" fill="#DAF6F2"></path>
                        <path d="M79.5,16 C79.224,16 79,15.8267059 79,15.6131827 L79,11.3868173 C79,11.1732941 79.224,11 79.5,11 C79.776,11 80,11.1732941 80,11.3868173 L80,15.6131827 C80,15.8267059 79.776,16 79.5,16" id="Fill-25" fill="#DAF6F2"></path>
                        <path d="M96.4,52 C96.179,52 96,51.8149871 96,51.5865633 L96,50.4134367 C96,50.1860465 96.179,50 96.4,50 C96.621,50 96.8,50.1860465 96.8,50.4134367 L96.8,51.5865633 C96.8,51.8149871 96.621,52 96.4,52" id="Fill-26" fill="#DAF6F2"></path>
                        <path d="M96.4,56 C96.179,56 96,55.8140496 96,55.5857438 L96,54.4142562 C96,54.1859504 96.179,54 96.4,54 C96.621,54 96.8,54.1859504 96.8,54.4142562 L96.8,55.5857438 C96.8,55.8140496 96.621,56 96.4,56" id="Fill-27" fill="#DAF6F2"></path>
                        <path d="M98.5863495,52.8 L97.4136505,52.8 C97.1851086,52.8 97,52.621 97,52.4 C97,52.179 97.1851086,52 97.4136505,52 L98.5863495,52 C98.8148914,52 99,52.179 99,52.4 C99,52.621 98.8148914,52.8 98.5863495,52.8" id="Fill-28" fill="#DAF6F2"></path>
                        <path d="M95.5865633,52.8 L94.4134367,52.8 C94.1850129,52.8 94,52.621 94,52.4 C94,52.179 94.1850129,52 94.4134367,52 L95.5865633,52 C95.8149871,52 96,52.179 96,52.4 C96,52.621 95.8149871,52.8 95.5865633,52.8" id="Fill-29" fill="#DAF6F2"></path>
                        <path d="M97.250156,52 C97.1859014,52 97.1222707,51.9756706 97.0729881,51.9270119 C96.9756706,51.8290705 96.9756706,51.6712414 97.0729881,51.5733001 L97.5733001,51.0729881 C97.6706176,50.9756706 97.8290705,50.9756706 97.9270119,51.0729881 C98.0243294,51.1709295 98.0243294,51.3293824 97.9270119,51.4266999 L97.4266999,51.9270119 C97.3780412,51.9756706 97.3137867,52 97.250156,52" id="Fill-30" fill="#DAF6F2"></path>
                        <path d="M97.749844,54 C97.6862133,54 97.6219588,53.9756554 97.5733001,53.9269663 L97.0729881,53.4269663 C96.9756706,53.3289638 96.9756706,53.170412 97.0729881,53.0730337 C97.1709295,52.9756554 97.3293824,52.9756554 97.4266999,53.0730337 L97.9270119,53.5736579 C98.0243294,53.6710362 98.0243294,53.829588 97.9270119,53.9269663 C97.8777293,53.9756554 97.8140986,54 97.749844,54" id="Fill-31" fill="#DAF6F2"></path>
                        <path d="M95.749844,52 C95.6862133,52 95.6219588,51.9756706 95.5733001,51.9270119 L95.0729881,51.4266999 C94.9756706,51.3293824 94.9756706,51.1709295 95.0729881,51.0729881 C95.1709295,50.9756706 95.3293824,50.9756706 95.4266999,51.0729881 L95.9270119,51.5733001 C96.0243294,51.6712414 96.0243294,51.8290705 95.9270119,51.9270119 C95.8777293,51.9756706 95.8140986,52 95.749844,52" id="Fill-32" fill="#DAF6F2"></path>
                        <path d="M95.250156,54 C95.1859014,54 95.1222707,53.9756554 95.0729881,53.9269663 C94.9756706,53.829588 94.9756706,53.6710362 95.0729881,53.5736579 L95.5733001,53.0730337 C95.6706176,52.9756554 95.8290705,52.9756554 95.9270119,53.0730337 C96.0243294,53.170412 96.0243294,53.3289638 95.9270119,53.4269663 L95.4266999,53.9269663 C95.3780412,53.9756554 95.3137867,54 95.250156,54" id="Fill-33" fill="#DAF6F2"></path>
                        <path d="M1.99961575,25 C0.897598463,25 0,24.102574 0,23 C0,21.897426 0.897598463,21 1.99961575,21 C3.10240154,21 4,21.897426 4,23 C4,24.102574 3.10240154,25 1.99961575,25 L1.99961575,25 Z M1.99961575,21.7683442 C1.32103746,21.7683442 0.768491835,22.3207837 0.768491835,23 C0.768491835,23.6792163 1.32103746,24.2316558 1.99961575,24.2316558 C2.67896254,24.2316558 3.23150817,23.6792163 3.23150817,23 C3.23150817,22.3207837 2.67896254,21.7683442 1.99961575,21.7683442 L1.99961575,21.7683442 Z" id="Fill-34" fill="#DAF6F2"></path>
                        <path d="M34,45.7937362 C33.56723,45.2355699 32.6216018,45.0763084 32.2373255,45.0913331 C31.943424,45.1026016 31.6847906,45.1544367 31.4526084,45.2859025 C31.193975,45.0642887 30.7883909,44.94935 30.7501837,45.0214684 C30.7031594,45.1101139 30.8104335,45.5781323 30.9221161,45.8335516 C30.8390889,45.9973205 30.7648788,46.3241069 30.7648788,46.5885411 C30.7648788,46.8364481 30.8221896,47.0347737 30.9147686,47.1985425 C30.6164585,47.2368554 30.3005143,47.3330133 30,47.5388512 C30.2182219,47.5441098 30.3989713,47.5734079 30.5238795,47.6087159 L30.4974284,47.6335066 L30.4423218,47.683088 L30.3137399,47.8115489 L30.3063924,47.8198125 L30.1587068,48.0053671 C30.5209405,47.8776574 30.8052902,47.8573741 30.8706833,47.9009457 C30.9353417,47.9445172 31.1792799,47.9174728 31.2828802,47.7582113 L31.3578251,47.6680633 C31.3659074,48.0857491 31.5077149,48.5672896 31.5077149,48.5672896 L31.5121234,48.5853192 L31.5819251,48.8061818 L31.5973549,48.8572657 L31.6171932,48.8978323 L31.6142542,48.8993347 L31.6340926,48.9331402 L31.6465834,48.9526723 L31.6936076,48.9812192 L31.7016899,48.9782142 L31.7421014,48.9556772 L31.7590007,48.9331402 L31.7759001,48.909852 L31.7729611,48.9068471 L31.7964732,48.8610218 L31.814842,48.8106892 L31.8919912,48.6574376 L32.5363703,48.6687061 L32.6069067,48.8760465 L32.626745,48.9166131 L32.623806,48.9173643 L32.6436444,48.9519211 L32.6554004,48.9714531 L32.7031594,49 L32.7112417,48.9969951 L32.7516532,48.9744581 L32.7678178,48.9519211 L32.7854519,48.9278816 L32.7817781,48.9256279 L32.806025,48.8790514 L32.8236591,48.8287188 L32.898604,48.6063537 L32.901543,48.5973389 L32.9030125,48.5928315 C32.9030125,48.5928315 32.9404849,48.4696293 32.9794269,48.2938407 L33.0529023,48.3516857 L33.101396,48.3824862 L33.1160911,48.3892473 L33.1249082,48.3952572 L33.1550331,48.4087794 L33.1594416,48.4117843 L33.1616458,48.4125356 L33.1873622,48.4230528 L33.1917708,48.4253065 L33.2270389,48.4358238 L33.2402645,48.43958 L33.277737,48.4478435 L33.3027186,48.4538534 L33.3159442,48.4538534 L33.4481999,48.4546046 L33.3997061,48.4531022 L33.4761205,48.4531022 L33.6568699,48.3869936 L33.7002204,48.3576955 L33.7215283,48.3411684 L33.7413666,48.3231388 L33.755327,48.3096166 L33.7759001,48.2878308 L33.808964,48.2457618 C33.8501102,48.1894193 33.8868479,48.1225595 33.895665,48.0481874 C33.9412197,47.6823368 33.6869949,47.5275827 33.5275533,47.515563 C33.2747979,47.4960309 33.1748714,47.6117208 33.1359295,47.6838392 L33.0859662,47.8393445 C33.0830272,47.9940986 33.2049963,48.1218083 33.3585599,48.1248132 L33.3600294,48.124062 L33.4526084,48.1075348 L33.4893461,48.0902565 L33.5187362,48.0707244 L33.5576782,48.0444312 L33.5466569,48.0729781 L33.5371051,48.0902565 L33.5349008,48.0947639 L33.5260838,48.1060324 L33.4959589,48.1405891 L33.4173402,48.1841606 L33.3269655,48.1991853 L33.2828802,48.1954291 L33.2615724,48.1924242 L33.2409993,48.1871656 L33.2020573,48.1743946 L33.1675239,48.1586187 L33.1146216,48.1300718 L33.0242469,48.0654658 C33.0492285,47.9219802 33.0675974,47.7664749 33.0683321,47.6214869 C33.423953,47.4517081 33.6583395,47.1422 33.6634827,46.6411274 C33.665687,46.4428018 33.6304188,46.18588 33.573108,46.0198575 L33.6127847,46.0100914 L33.7112417,45.9777884 L33.7604702,45.9590076 L33.8082292,45.9402267 L33.8905217,45.9019138 L33.9228508,45.8846355 L33.9478325,45.8696108 L33.9625276,45.8590935 L33.9669361,45.8553374 L33.9662013,45.8538349 L33.961058,45.8568398 L33.952241,45.8613472 L34,45.7937362" id="Fill-35" fill="#068989"></path>
                        <path d="M60.5968363,48 L57.4031637,48 C57.1800852,48 57,47.789225 57,47.5302457 L57,47.4697543 C57,47.2098299 57.1800852,47 57.4031637,47 L60.5968363,47 C60.8199148,47 61,47.2098299 61,47.4697543 L61,47.5302457 C61,47.789225 60.8199148,48 60.5968363,48" id="Fill-36" fill="#068989"></path>
                        <path d="M65.5976475,48 L62.4031637,48 C62.1808964,48 62,47.789225 62,47.5302457 L62,47.4697543 C62,47.2098299 62.1808964,47 62.4031637,47 L65.5976475,47 C65.8199148,47 66,47.2098299 66,47.4697543 L66,47.5302457 C66,47.789225 65.8199148,48 65.5976475,48" id="Fill-37" fill="#068989"></path>
                        <path d="M71.5968363,48 L68.4031637,48 C68.1800852,48 68,47.789225 68,47.5302457 L68,47.4697543 C68,47.2098299 68.1800852,47 68.4031637,47 L71.5968363,47 C71.8191036,47 72,47.2098299 72,47.4697543 L72,47.5302457 C72,47.789225 71.8191036,48 71.5968363,48" id="Fill-38" fill="#068989"></path>
                        <path d="M70.6124663,58 L52.3875337,58 C52.1736151,58 52,57.776 52,57.5 C52,57.224 52.1736151,57 52.3875337,57 L70.6124663,57 C70.8263849,57 71,57.224 71,57.5 C71,57.776 70.8263849,58 70.6124663,58" id="Fill-39" fill="#068989"></path>
                        <path d="M62.5928942,61 L52.4071058,61 C52.1823834,61 52,60.777 52,60.5 C52,60.224 52.1823834,60 52.4071058,60 L62.5928942,60 C62.8176166,60 63,60.224 63,60.5 C63,60.777 62.8176166,61 62.5928942,61" id="Fill-40" fill="#068989"></path>
                        <polygon id="Fill-41" fill="#B5E9E7" points="31 53 47 53 47 62 31 62"></polygon>
                        <path d="M47.606282,63 L30.393718,63 C30.1755982,63 30,62.8175247 30,62.5908626 L30,51.4091374 C30,51.1832936 30.1755982,51 30.393718,51 L47.606282,51 C47.8244018,51 48,51.1832936 48,51.4091374 L48,62.5908626 C48,62.8175247 47.8244018,63 47.606282,63 L47.606282,63 Z M30.787436,62.1817252 L47.212564,62.1817252 L47.212564,51.8182748 L30.787436,51.8182748 L30.787436,62.1817252 Z" id="Fill-42" fill="#068989"></path>
                        <polygon id="Fill-43" fill="#24D3C6" points="31 67 70 67 70 76 31 76"></polygon>
                        <path d="M32,37.0004824 C32,37.5523396 31.5524809,38 31,38 C30.4475191,38 30,37.5523396 30,37.0004824 C30,36.4476604 30.4475191,36 31,36 C31.5524809,36 32,36.4476604 32,37.0004824" id="Fill-44" fill="#1AA8A4"></path>
                        <path d="M30,38 C29.4483204,38 29,37.5507812 29,37 C29,36.4485677 29.4483204,36 30,36 C30.5510336,36 31,36.4485677 31,37 C31,37.5507812 30.5510336,38 30,38 L30,38 Z M30,36.6510417 C29.8049096,36.6510417 29.6459948,36.8072917 29.6459948,37 C29.6459948,37.1927083 29.8049096,37.3489583 30,37.3489583 C30.1950904,37.3489583 30.3540052,37.1927083 30.3540052,37 C30.3540052,36.8072917 30.1950904,36.6510417 30,36.6510417 L30,36.6510417 Z" id="Fill-45" fill="#068989"></path>
                        <path d="M35,37.0004824 C35,37.5523396 34.5524809,38 34.0009542,38 C33.4484733,38 33,37.5523396 33,37.0004824 C33,36.4476604 33.4484733,36 34.0009542,36 C34.5524809,36 35,36.4476604 35,37.0004824" id="Fill-46" fill="#1AA8A4"></path>
                        <path d="M33,38 C32.4489664,38 32,37.5507812 32,37 C32,36.4485677 32.4489664,36 33,36 C33.5516796,36 34,36.4485677 34,37 C34,37.5507812 33.5516796,38 33,38 L33,38 Z M33,36.6510417 C32.8055556,36.6510417 32.6466408,36.8072917 32.6466408,37 C32.6466408,37.1927083 32.8055556,37.3489583 33,37.3489583 C33.1950904,37.3489583 33.3540052,37.1927083 33.3540052,37 C33.3540052,36.8072917 33.1950904,36.6510417 33,36.6510417 L33,36.6510417 Z" id="Fill-47" fill="#068989"></path>
                        <path d="M38,37.0004824 C38,37.5523396 37.5524809,38 37,38 C36.4475191,38 36,37.5523396 36,37.0004824 C36,36.4476604 36.4475191,36 37,36 C37.5524809,36 38,36.4476604 38,37.0004824" id="Fill-48" fill="#1AA8A4"></path>
                        <path d="M37,38 C36.4483204,38 36,37.5507812 36,37 C36,36.4485677 36.4483204,36 37,36 C37.5510336,36 38,36.4485677 38,37 C38,37.5507812 37.5510336,38 37,38 L37,38 Z M37,36.6510417 C36.8049096,36.6510417 36.6459948,36.8072917 36.6459948,37 C36.6459948,37.1927083 36.8049096,37.3489583 37,37.3489583 C37.1950904,37.3489583 37.3540052,37.1927083 37.3540052,37 C37.3540052,36.8072917 37.1950904,36.6510417 37,36.6510417 L37,36.6510417 Z" id="Fill-49" fill="#068989"></path>
                        <path d="M70.6069836,77 L30.3922319,77 C30.1749354,77 30,76.8167064 30,76.5908626 L30,65.4091374 C30,65.1824753 30.1749354,65 30.3922319,65 L70.6069836,65 C70.8242801,65 71,65.1824753 71,65.4091374 L71,76.5908626 C71,76.8167064 70.8242801,77 70.6069836,77 L70.6069836,77 Z M30.7844638,76.1817252 L70.2155362,76.1817252 L70.2155362,65.8182748 L30.7844638,65.8182748 L30.7844638,76.1817252 Z" id="Fill-50" fill="#068989"></path>
                        <path d="M13.392357,42 L13.33129,41.9951878 C13.1175558,41.9607005 12.9711517,41.7553808 13.0048168,41.5372285 C15.4842909,25.3434357 27.7579619,12.6721598 43.5453303,10.0062112 C43.7520184,9.96691174 43.9602723,10.1184955 43.9947203,10.3366477 C44.0299513,10.5556019 43.885113,10.7609217 43.6721617,10.7970131 C28.2190956,13.4068195 16.2053505,25.8102173 13.7783313,41.6607412 C13.7477979,41.8588427 13.5810382,42 13.392357,42" id="Fill-51" fill="#068989"></path>
                        <path d="M50.0636635,85 C31.510028,85 15.5777754,71.0084034 13.0038241,52.454486 C12.9737841,52.2354051 13.123984,52.033115 13.3397975,52.0027315 C13.5540299,51.977945 13.7564045,52.1242655 13.7864444,52.3433464 C16.3058495,70.5046771 31.9021287,84.2004345 50.0636635,84.2004345 C68.1026668,84.2004345 83.3060548,71.1531247 86.2151889,53.1772932 C86.249972,52.9598114 86.4594613,52.8094931 86.6689506,52.8478722 C86.8847641,52.8830531 87.0302208,53.089341 86.9946471,53.3068228 C84.023852,71.6712432 68.4916053,85 50.0636635,85" id="Fill-52" fill="#068989"></path>
                        <path d="M87.5968252,42 C87.4006902,42 87.229474,41.8581502 87.1997322,41.6608284 C84.8340543,25.7585945 72.430925,13.3518882 56.3374026,10.7874974 C56.1179564,10.7526293 55.9692475,10.5489679 56.0054199,10.3334196 C56.0399847,10.1162864 56.2513926,9.96968185 56.4660157,10.0053424 C72.9067936,12.6252051 85.5784028,25.2997619 87.9955259,41.5459222 C88.0284831,41.7622629 87.875755,41.9643394 87.6563088,41.9960377 L87.5968252,42" id="Fill-53" fill="#068989"></path>
                        <path d="M49.1804121,85 C40.7243844,85 32.1869119,81.7252912 25.14154,75.7797376 C25.0513972,75.7041552 25,75.5927705 25,75.475021 L25,33.7097544 C25,32.7661673 25.7630509,32 26.7000617,32 L73.2991476,32 C74.2369491,32 75,32.7661673 75,33.7097544 L75,74.885478 C75,74.9944758 74.9549286,75.0987 74.875856,75.1742825 C68.209242,81.510478 59.0842598,85 49.1804121,85 L49.1804121,85 Z M25.7907264,75.2888495 C32.6660921,81.0386844 40.965556,84.2043953 49.1804121,84.2043953 C58.8201572,84.2043953 67.700805,80.834214 74.2084829,74.7136274 L74.2084829,33.7097544 C74.2084829,33.2053411 73.8012588,32.7956047 73.2991476,32.7956047 L26.7000617,32.7956047 C26.1987412,32.7956047 25.7907264,33.2053411 25.7907264,33.7097544 L25.7907264,75.2888495 L25.7907264,75.2888495 Z" id="Fill-54" fill="#068989"></path>
                    </g>
                </g>
            </g>
        </g>
    </g>
</svg>