<?xml version="1.0" encoding="UTF-8"?>
<svg width="100px" height="85px" viewBox="0 0 100 85" version="1.1" xmlns="http://www.w3.org/2000/svg" xmlns:xlink="http://www.w3.org/1999/xlink">
    <!-- Generator: Sketch 46.2 (44496) - http://www.bohemiancoding.com/sketch -->
    <title>js イラスト</title>
    <desc>Created with Sketch.</desc>
    <defs></defs>
    <g id="レッスン一覧---コース一覧（/languages）" stroke="none" stroke-width="1" fill="none" fill-rule="evenodd">
        <g id="Sass-目標物" transform="translate(-590.000000, -541.000000)" fill-rule="nonzero">
            <g id="コース一覧" transform="translate(290.000000, 466.000000)">
                <g id="コースカード_JS" transform="translate(240.000000, 0.000000)">
                    <g id="js-イラスト" transform="translate(60.000000, 75.000000)">
                        <path d="M88,47.5004003 C88,68.2112016 71.2112016,85 50.5004003,85 C29.789599,85 13,68.2112016 13,47.5004003 C13,26.789599 29.789599,10 50.5004003,10 C71.2112016,10 88,26.789599 88,47.5004003" id="Fill-1" fill="#F9D700"></path>
                        <path d="M74.6743155,33 L27.3256845,33 C26.593746,33 26,33.5872348 26,34.3076079 L26,75.9236162 C32.5384368,81.3331505 40.9649698,85 50.1668274,85 C60.1721301,85 69.259095,81.1421604 76,74.8608876 L76,34.3076079 C76,33.5872348 75.4054506,33 74.6743155,33" id="Fill-2" fill="#FFFFFF"></path>
                        <path d="M73,7 C73,7.55212355 72.5521236,8 72,8 C71.4478764,8 71,7.55212355 71,7 C71,6.44787645 71.4478764,6 72,6 C72.5521236,6 73,6.44787645 73,7" id="Fill-3" fill="#ECBF00"></path>
                        <path d="M13,22 C13,22.5521236 12.5521236,23 12,23 C11.4478764,23 11,22.5521236 11,22 C11,21.4478764 11.4478764,21 12,21 C12.5521236,21 13,21.4478764 13,22" id="Fill-4" fill="#ECBF00"></path>
                        <path d="M53,10.5 C53,11.328877 52.328877,12 51.5,12 C50.671123,12 50,11.328877 50,10.5 C50,9.67112299 50.671123,9 51.5,9 C52.328877,9 53,9.67112299 53,10.5" id="Fill-5" fill="#ECBF00"></path>
                        <path d="M15,47.5004455 C15,48.3290763 14.328877,49 13.5,49 C12.671123,49 12,48.3290763 12,47.5004455 C12,46.6718147 12.671123,46 13.5,46 C14.328877,46 15,46.6718147 15,47.5004455" id="Fill-6" fill="#ECBF00"></path>
                        <path d="M90,47.5004455 C90,48.3290763 89.3281853,49 88.5004455,49 C87.6718147,49 87,48.3290763 87,47.5004455 C87,46.6718147 87.6718147,46 88.5004455,46 C89.3281853,46 90,46.6718147 90,47.5004455" id="Fill-7" fill="#ECBF00"></path>
                        <path d="M26.5487531,33 L26,33 L26,34.036373 C26,33.6104982 26.2161268,33.2327185 26.5487531,33 M76,33 L75.4512469,33 C75.7830698,33.2327185 76,33.6104982 76,34.036373 L76,42 L76,33" id="Fill-8" fill="#FEDE2C"></path>
                        <path d="M75.4512469,33 L26.5487531,33 C26.2161268,33.2327185 26,33.6104982 26,34.036373 L26,42 L76,42 L76,34.036373 C76,33.6104982 75.7830698,33.2327185 75.4512469,33" id="Fill-9" fill="#FFE65F"></path>
                        <path d="M7.61318273,31 L3.38681727,31 C3.17329414,31 3,30.777 3,30.5 C3,30.224 3.17329414,30 3.38681727,30 L7.61318273,30 C7.82670586,30 8,30.224 8,30.5 C8,30.777 7.82670586,31 7.61318273,31" id="Fill-10" fill="#ECBF00"></path>
                        <path d="M6.499,32 C6.223,32 6,31.826679 6,31.6131229 L6,27.3868771 C6,27.1725472 6.223,27 6.499,27 C6.776,27 7,27.1725472 7,27.3868771 L7,31.6131229 C7,31.826679 6.776,32 6.499,32" id="Fill-11" fill="#ECBF00"></path>
                        <path d="M98.6131229,62 L94.3868771,62 C94.173321,62 94,61.776 94,61.5 C94,61.224 94.173321,61 94.3868771,61 L98.6131229,61 C98.826679,61 99,61.224 99,61.5 C99,61.776 98.826679,62 98.6131229,62" id="Fill-12" fill="#ECBF00"></path>
                        <path d="M96.499,64 C96.223,64 96,63.8267059 96,63.6131827 L96,59.3868173 C96,59.1725205 96.223,59 96.499,59 C96.776,59 97,59.1725205 97,59.3868173 L97,63.6131827 C97,63.8267059 96.776,64 96.499,64" id="Fill-13" fill="#ECBF00"></path>
                        <path d="M36.404208,2 C36.18144,2 36,1.8368087 36,1.63735267 L36,0.362647325 C36,0.163191296 36.18144,0 36.404208,0 C36.626976,0 36.807408,0.163191296 36.807408,0.362647325 L36.807408,1.63735267 C36.807408,1.8368087 36.626976,2 36.404208,2" id="Fill-14" fill="#ECBF00"></path>
                        <path d="M36.404208,6 C36.18144,6 36,5.83688265 36,5.63661078 L36,4.36338922 C36,4.16311735 36.18144,4 36.404208,4 C36.626976,4 36.807408,4.16311735 36.807408,4.36338922 L36.807408,5.63661078 C36.807408,5.83688265 36.626976,6 36.404208,6" id="Fill-15" fill="#ECBF00"></path>
                        <path d="M38.6373527,3.801 L37.3626473,3.801 C37.1631913,3.801 37,3.621 37,3.4 C37,3.18 37.1631913,3 37.3626473,3 L38.6373527,3 C38.8368087,3 39,3.18 39,3.4 C39,3.621 38.8368087,3.801 38.6373527,3.801" id="Fill-16" fill="#ECBF00"></path>
                        <path d="M34.6373527,3.801 L33.3635539,3.801 C33.1631913,3.801 33,3.621 33,3.4 C33,3.18 33.1631913,3 33.3635539,3 L34.6373527,3 C34.8377153,3 35,3.18 35,3.4 C35,3.621 34.8377153,3.801 34.6373527,3.801" id="Fill-17" fill="#ECBF00"></path>
                        <path d="M37.2229654,2 C37.1661093,2 37.1086957,1.97826087 37.0652174,1.93478261 C36.9782609,1.84782609 36.9782609,1.70624303 37.0652174,1.61928651 L37.6187291,1.06521739 C37.7056856,0.97826087 37.8472687,0.97826087 37.9347826,1.06521739 C38.0217391,1.15273133 38.0217391,1.29431438 37.9347826,1.3812709 L37.3807135,1.93478261 C37.3372352,1.97826087 37.280379,2 37.2229654,2" id="Fill-18" fill="#ECBF00"></path>
                        <path d="M37.7765156,5 C37.7196515,5 37.6622299,4.97827298 37.6187456,4.93426184 L37.0651569,4.38050139 C36.9781883,4.29359331 36.9781883,4.15264624 37.0657144,4.06573816 C37.1515681,3.97827298 37.2937283,3.97771588 37.3806969,4.06629526 L37.9348431,4.62005571 C38.0218117,4.70696379 38.0218117,4.84791086 37.9342856,4.93481894 C37.8908013,4.97827298 37.8339372,5 37.7765156,5" id="Fill-19" fill="#ECBF00"></path>
                        <path d="M34.7770346,2 C34.719621,2 34.6622074,1.97826087 34.6187291,1.93478261 L34.0652174,1.3812709 C33.9782609,1.29431438 33.9782609,1.15273133 34.0652174,1.06521739 C34.1521739,0.97826087 34.293757,0.97826087 34.3812709,1.06521739 L34.9347826,1.61928651 C35.0217391,1.70624303 35.0217391,1.84782609 34.9347826,1.93478261 C34.8913043,1.97826087 34.8338907,2 34.7770346,2" id="Fill-20" fill="#ECBF00"></path>
                        <path d="M34.2234844,5 C34.1660628,5 34.1086412,4.97827298 34.0657144,4.93481894 C33.9781883,4.84791086 33.9781883,4.70696379 34.0651569,4.62005571 L34.6187456,4.06629526 C34.7062717,3.97771588 34.8484319,3.97827298 34.9342856,4.06573816 C35.0218117,4.15264624 35.0218117,4.29359331 34.9348431,4.38050139 L34.3812544,4.93426184 C34.3377701,4.97827298 34.2803485,5 34.2234844,5" id="Fill-21" fill="#ECBF00"></path>
                        <path d="M79.0003842,9 C77.8975985,9 77,8.10240154 77,6.99961575 C77,5.89759846 77.8975985,5 79.0003842,5 C80.1024015,5 81,5.89759846 81,6.99961575 C81,8.10240154 80.1024015,9 79.0003842,9 L79.0003842,9 Z M79.0003842,5.76849183 C78.3210375,5.76849183 77.7684918,6.32026897 77.7684918,6.99961575 C77.7684918,7.67896254 78.3210375,8.23150817 79.0003842,8.23150817 C79.679731,8.23150817 80.2315082,7.67896254 80.2315082,6.99961575 C80.2315082,6.32026897 79.679731,5.76849183 79.0003842,5.76849183 L79.0003842,5.76849183 Z" id="Fill-22" fill="#ECBF00"></path>
                        <path d="M82.6138369,14 L78.386937,14 C78.1725739,14 78,13.776 78,13.5 C78,13.223 78.1725739,13 78.386937,13 L82.6138369,13 C82.8274261,13 83,13.223 83,13.5 C83,13.776 82.8274261,14 82.6138369,14" id="Fill-23" fill="#FFFFFF"></path>
                        <path d="M80.5,16 C80.224,16 80,15.8274795 80,15.6131827 L80,11.3868173 C80,11.1732941 80.224,11 80.5,11 C80.776,11 81,11.1732941 81,11.3868173 L81,15.6131827 C81,15.8274795 80.776,16 80.5,16" id="Fill-24" fill="#FFFFFF"></path>
                        <path d="M97.4032,52 C97.180432,52 97,51.8140496 97,51.5857438 L97,50.4132231 C97,50.1859504 97.180432,50 97.4032,50 C97.625968,50 97.807408,50.1859504 97.807408,50.4132231 L97.807408,51.5857438 C97.807408,51.8140496 97.625968,52 97.4032,52" id="Fill-25" fill="#FFFFFF"></path>
                        <path d="M97.4032,55 C97.180432,55 97,54.8140496 97,54.5867769 L97,53.4142562 C97,53.1859504 97.180432,53 97.4032,53 C97.625968,53 97.807408,53.1859504 97.807408,53.4142562 L97.807408,54.5867769 C97.807408,54.8140496 97.625968,55 97.4032,55" id="Fill-26" fill="#FFFFFF"></path>
                        <path d="M99.5863495,52.801 L98.4136505,52.801 C98.1851086,52.801 98,52.621 98,52.4 C98,52.18 98.1851086,52 98.4136505,52 L99.5863495,52 C99.8148914,52 100,52.18 100,52.4 C100,52.621 99.8148914,52.801 99.5863495,52.801" id="Fill-27" fill="#FFFFFF"></path>
                        <path d="M96.5857438,52.801 L95.4132231,52.801 C95.1859504,52.801 95,52.621 95,52.4 C95,52.18 95.1859504,52 95.4132231,52 L96.5857438,52 C96.8140496,52 97,52.18 97,52.4 C97,52.621 96.8140496,52.801 96.5857438,52.801" id="Fill-28" fill="#FFFFFF"></path>
                        <path d="M98.250039,52 C98.1857745,52 98.1221338,51.9756668 98.0734675,51.9270005 C97.9755108,51.8296678 97.9755108,51.6711901 98.0734675,51.5732335 L98.5732335,51.0734675 C98.6711901,50.9755108 98.8296678,50.9755108 98.9270005,51.0734675 C99.0243332,51.1708002 99.0243332,51.3292778 98.9270005,51.4266105 L98.4266105,51.9270005 C98.3779442,51.9756668 98.3136796,52 98.250039,52" id="Fill-29" fill="#FFFFFF"></path>
                        <path d="M98.750429,54 C98.6861644,54 98.6225238,53.9750468 98.5732335,53.926388 L98.0734675,53.4266999 C97.9755108,53.3293824 97.9755108,53.1703057 98.0734675,53.0729881 C98.1708002,52.9756706 98.3292778,52.9756706 98.4266105,53.0729881 L98.9270005,53.5733001 C99.0243332,53.6706176 99.0243332,53.8290705 98.9270005,53.926388 C98.8783341,53.9750468 98.8140696,54 98.750429,54" id="Fill-30" fill="#FFFFFF"></path>
                        <path d="M96.749805,52 C96.6861644,52 96.6218999,51.9756668 96.5732335,51.9270005 L96.0734675,51.4266105 C95.9755108,51.3292778 95.9755108,51.1708002 96.0734675,51.0734675 C96.1708002,50.9755108 96.3292778,50.9755108 96.4266105,51.0734675 L96.9270005,51.5732335 C97.0243332,51.6711901 97.0243332,51.8296678 96.9270005,51.9270005 C96.8783341,51.9756668 96.8140696,52 96.749805,52" id="Fill-31" fill="#FFFFFF"></path>
                        <path d="M96.250039,54 C96.1857745,54 96.1221338,53.9750468 96.0734675,53.926388 C95.9755108,53.8290705 95.9755108,53.6706176 96.0734675,53.5733001 L96.5732335,53.0729881 C96.6711901,52.9756706 96.8290438,52.9756706 96.9270005,53.0729881 C97.0243332,53.1703057 97.0243332,53.3293824 96.9270005,53.4266999 L96.4266105,53.926388 C96.3779442,53.9750468 96.3136796,54 96.250039,54" id="Fill-32" fill="#FFFFFF"></path>
                        <path d="M1.99961575,25 C0.897598463,25 0,24.102574 0,23 C0,21.897426 0.897598463,21 1.99961575,21 C3.10240154,21 4,21.897426 4,23 C4,24.102574 3.10240154,25 1.99961575,25 L1.99961575,25 Z M1.99961575,21.7675759 C1.32103746,21.7675759 0.768491835,22.3207837 0.768491835,23 C0.768491835,23.6792163 1.32103746,24.2316558 1.99961575,24.2316558 C2.67896254,24.2316558 3.23150817,23.6792163 3.23150817,23 C3.23150817,22.3207837 2.67896254,21.7675759 1.99961575,21.7675759 L1.99961575,21.7675759 Z" id="Fill-33" fill="#FFFFFF"></path>
                        <path d="M35.9107767,63.0406773 L35.9107767,65.9630298 C35.9107767,67.301573 36.127375,67.5139766 36.7308102,67.5139766 L38,67.5139766 L38,69 L36.1577747,69 C34.7183463,69 33.8823529,68.1672177 33.8823529,66.5184851 L33.8823529,63.0246468 C33.8823529,62.0612163 33.7896337,61.5386234 33,61.4248071 L33,60.4934375 C33.7896337,60.3307284 33.8823529,59.8081355 33.8823529,58.8447049 L33.8823529,55.4823164 C33.8823529,53.7999198 34.7183463,53 36.1577747,53 L38,53 L38,54.4860234 L36.7308102,54.4860234 C36.127375,54.4860234 35.9107767,54.698427 35.9107767,56.0369702 L35.9107767,58.8447049 C35.9107767,59.8570284 35.3217814,60.6409177 34.7335461,60.9511071 C35.3217814,61.2773269 35.9107767,62.0123234 35.9107767,63.0406773" id="Fill-34" fill="#FFFFFF"></path>
                        <path d="M37.6041694,69 L35.6859744,69 C33.9269033,69 32.9191186,67.9376014 32.9191186,66.0836752 L32.9191186,62.5485641 C32.9191186,61.4999523 32.7782029,61.3920904 32.3419976,61.3312661 C32.1456657,61.3045034 32,61.1325732 32,60.9298254 L32,59.9882645 C32,59.7944376 32.1337907,59.6281843 32.3190395,59.5908787 C32.7979945,59.4943708 32.9191186,59.3337945 32.9191186,58.3192443 L32.9191186,54.9171358 C32.9191186,53.0364469 33.9015701,52 35.6859744,52 L37.6041694,52 C37.8226679,52 38,52.1816621 38,52.4054957 L38,53.9090736 C38,54.1329072 37.8226679,54.3145692 37.6041694,54.3145692 L36.2820953,54.3145692 C35.9480142,54.3145692 35.8237234,54.3145692 35.8237234,55.4783418 L35.8237234,58.3192443 C35.8237234,59.2364755 35.4073097,59.9833985 34.8943132,60.4513405 C35.4009764,60.9063067 35.8237234,61.619979 35.8237234,62.5655949 L35.8237234,65.5216582 C35.8237234,66.6862418 35.9480142,66.6862418 36.2820953,66.6862418 L37.6041694,66.6862418 C37.8226679,66.6862418 38,66.8670928 38,67.0917374 L38,68.5945043 C38,68.8183379 37.8226679,69 37.6041694,69 L37.6041694,69 Z M32.7916612,60.6070509 C33.7107798,60.9144166 33.7107798,61.8486786 33.7107798,62.5485641 L33.7107798,66.0836752 C33.7107798,67.4802023 34.3757752,68.1890087 35.6859744,68.1890087 L37.2083388,68.1890087 L37.2083388,67.4972331 L36.2820953,67.4972331 C35.2315609,67.4972331 35.0320623,66.8022135 35.0320623,65.5216582 L35.0320623,62.5655949 C35.0320623,61.6726934 34.4850244,61.061206 34.0179443,60.8097987 C33.8857369,60.7392424 33.8041958,60.5989409 33.8057791,60.4464746 C33.8073624,60.2948192 33.8912785,60.1561397 34.0242776,60.0880164 C34.5103576,59.8398531 35.0320623,59.1805171 35.0320623,58.3192443 L35.0320623,55.4783418 C35.0320623,54.1977865 35.2315609,53.5035779 36.2820953,53.5035779 L37.2083388,53.5035779 L37.2083388,52.8109913 L35.6859744,52.8109913 C34.3567753,52.8109913 33.7107798,53.5003339 33.7107798,54.9171358 L33.7107798,58.3192443 C33.7107798,59.0142639 33.7107798,59.940416 32.7916612,60.2948192 L32.7916612,60.6070509 L32.7916612,60.6070509 Z" id="Fill-35" fill="#ECBF00"></path>
                        <path d="M43.0852436,64.343683 L43.939427,63.4483092 C44.1209107,63.2790263 44.2846494,63.3130489 44.4322561,63.4649056 C44.6460036,63.7022336 44.9742875,64.005947 45.5171255,64.005947 C46.1575615,64.005947 46.8310678,63.4649056 46.8310678,62.2990111 L46.8310678,54.3211396 C46.8310678,54.1518567 46.9625426,54 47.1432198,54 L48.6870414,54 C48.8677185,54 49,54.1518567 49,54.3211396 L49,62.2990111 C49,64.6482263 47.4715037,66 45.5493893,66 C44.1209107,66 43.3320614,65.1212226 43.0521732,64.7668903 C42.9707072,64.6316299 42.986839,64.462347 43.0852436,64.343683" id="Fill-36" fill="#F1D846"></path>
                        <path d="M46.0340172,66 C44.8935273,66 43.8667545,65.538969 43.14129,64.7022832 C42.9337773,64.3964815 42.961169,64.0534247 43.1819625,63.8112671 L43.2018837,63.7910873 L44.0817376,62.9528491 C44.430359,62.6548089 44.855345,62.6633465 45.1782348,62.9675959 C45.3849174,63.174827 45.6206519,63.3587737 45.9999851,63.3587737 C46.4673037,63.3587737 46.9379425,62.9854473 46.9379425,62.1503137 L46.9379425,54.6884419 C46.9379425,54.3089063 47.2683027,54 47.6741976,54 L49.2629149,54 C49.6688097,54 50,54.3089063 50,54.6884419 L50,62.1503137 C50,64.4166613 48.3689501,66 46.0340172,66 L46.0340172,66 Z M43.8460032,64.2862687 C44.2228463,64.7022832 44.9283895,65.2238536 46.0340172,65.2238536 C47.909932,65.2238536 49.1699492,63.9882284 49.1699492,62.1503137 L49.1699492,54.7761464 L47.7679933,54.7761464 L47.7679933,62.1503137 C47.7679933,63.4534636 46.8790089,64.1349201 45.9999851,64.1349201 C45.3259838,64.1349201 44.8951874,63.8120432 44.6229308,63.5481534 L43.8460032,64.2862687 L43.8460032,64.2862687 Z" id="Fill-37" fill="#ECBF00"></path>
                        <path d="M52.0725878,64.2006137 L52.6204723,63.1671326 C52.7423074,62.9339243 53.0009268,62.9339243 53.1377111,63.0501193 C53.2139515,63.1000341 54.4472521,64.0836004 55.4368824,64.0836004 C56.2284372,64.0836004 56.8219164,63.516536 56.8219164,62.7997272 C56.8219164,61.950358 56.1678933,61.3669281 54.888998,60.8006819 C53.4576218,60.1673372 52.0269931,59.1665871 52.0269931,57.1994545 C52.0269931,55.7167405 53.0315725,54 55.4518315,54 C57.0050428,54 58.1927487,54.866553 58.4969628,55.1161268 C58.6494436,55.2167746 58.6950384,55.4998977 58.5881523,55.6668258 L58.0096222,56.6168428 C57.8877871,56.8165019 57.6598133,56.9498807 57.4766869,56.8165019 C57.3548517,56.7330378 56.1977915,55.9000341 55.360642,55.9000341 C54.4928468,55.9000341 54.0212028,56.5333788 54.0212028,57.066894 C54.0212028,57.849983 54.5847838,58.3834981 55.817337,58.9333788 C57.2943079,59.5839073 59,60.5502898 59,62.700716 C59,64.4166383 57.6441168,66 55.4974263,66 C53.5794569,66 52.4530424,65.017252 52.1488282,64.7005796 C52.0112965,64.550017 51.9350561,64.4673713 52.0725878,64.2006137" id="Fill-38" fill="#F1D846"></path>
                        <path d="M55.99725,65 C53.8426357,65 52.6012814,63.9888931 52.2724151,63.6786672 C52.1164738,63.5239372 51.8377867,63.2474148 52.1234217,62.7441593 L52.1257377,62.7403294 L52.6916038,61.772118 C52.8004539,61.5836844 52.9780108,61.4565301 53.1910791,61.4159326 C53.4080073,61.3738031 53.6311114,61.4258905 53.7970885,61.5538108 C54.9535242,62.3274607 55.6313284,62.4400613 55.9347191,62.4400613 C56.5299207,62.4400613 56.9792168,62.0877059 56.9792168,61.6212179 C56.9792168,61.2198391 56.7707805,60.7257756 55.2237195,60.1053236 C54.4324333,59.7874378 52.0261514,58.8222903 52.0261514,56.3787821 C52.0261514,54.7510532 53.2543819,53 55.9501588,53 C57.7326756,53 59.0759322,53.9352738 59.3268278,54.1229414 C59.4542055,54.1957105 59.5730915,54.3657602 59.6163227,54.5664496 C59.6634139,54.7786289 59.6232706,54.99617 59.5074726,55.1623899 L58.913043,56.0463424 C58.6443917,56.4446572 58.1773399,56.5702796 57.828402,56.3404826 C57.0363438,55.8387591 56.3037286,55.5453849 55.8552045,55.5453849 C55.1750844,55.5453849 54.8585699,55.9689774 54.8585699,56.2546917 C54.8585699,56.6384527 55.0538825,57.0727691 56.4727937,57.6472616 C58.2167112,58.3427805 60,59.3469935 60,61.5285331 C60,63.2114133 58.5973005,65 55.99725,65 L55.99725,65 Z M52.7973659,63.1171965 L52.8112617,63.1302183 C53.0011704,63.308694 54.0796355,64.23401 55.99725,64.23401 C58.0962813,64.23401 59.2280135,62.8399081 59.2280135,61.5285331 C59.2280135,59.8081195 57.7650991,58.9885101 56.1832987,58.3573344 C55.0932538,57.9161241 54.0865834,57.3569514 54.0865834,56.2546917 C54.0865834,55.5300651 54.7489478,54.7793949 55.8552045,54.7793949 C56.6719662,54.7793949 57.6863565,55.3431635 58.2228871,55.6809651 L58.2707502,55.6212179 L58.8690398,54.7319035 C58.6467077,54.5733435 57.4871839,53.76599 55.9501588,53.76599 C53.7731569,53.76599 52.7981379,55.078131 52.7981379,56.3787821 C52.7981379,57.7116047 53.6357433,58.6407507 55.5132145,59.3944849 C56.6202431,59.8387591 57.7512033,60.4507851 57.7512033,61.6212179 C57.7512033,62.5097664 56.9529693,63.2060513 55.9347191,63.2060513 C55.2484231,63.2060513 54.3691305,62.8605898 53.3933395,62.2064343 L53.3223168,62.1581769 L52.7973659,63.1171965 L52.7973659,63.1171965 Z" id="Fill-39" fill="#ECBF00"></path>
                        <path d="M67.0904255,58.8447049 L67.0904255,56.0369702 C67.0904255,54.698427 66.8731003,54.4860234 66.2545593,54.4860234 L65,54.4860234 L65,53 L66.8427052,53 C68.2819149,53 69.1025836,53.7999198 69.1025836,55.4823164 L69.1025836,58.8447049 C69.1025836,59.8081355 69.2104863,60.3307284 70,60.4934375 L70,61.4248071 C69.2104863,61.5386234 69.1025836,62.0612163 69.1025836,63.0246468 L69.1025836,66.5184851 C69.1025836,68.1672177 68.2819149,69 66.8427052,69 L65,69 L65,67.5139766 L66.2545593,67.5139766 C66.8731003,67.5139766 67.0904255,67.301573 67.0904255,65.9630298 L67.0904255,63.0406773 C67.0904255,62.0123234 67.6785714,61.2773269 68.2515198,60.9511071 C67.6785714,60.6409177 67.0904255,59.8570284 67.0904255,58.8447049" id="Fill-40" fill="#FFFFFF"></path>
                        <path d="M66.3148173,69 L64.3950389,69 C64.1765404,69 64,68.8183379 64,68.5945043 L64,67.0917374 C64,66.8670928 64.1765404,66.6862418 64.3950389,66.6862418 L65.7020715,66.6862418 C66.0567357,66.6862418 66.1762766,66.6862418 66.1762766,65.5216582 L66.1762766,62.5655949 C66.1762766,61.623223 66.5966486,60.9079286 67.0985618,60.4513405 C66.5895237,59.9817765 66.1762766,59.2332316 66.1762766,58.3192443 L66.1762766,55.4783418 C66.1762766,54.3145692 66.0472358,54.3145692 65.7020715,54.3145692 L64.3950389,54.3145692 C64.1765404,54.3145692 64,54.1329072 64,53.9090736 L64,52.4054957 C64,52.1816621 64.1765404,52 64.3950389,52 L66.3148173,52 C68.0881383,52 69.0650482,53.0364469 69.0650482,54.9171358 L69.0650482,58.3192443 C69.0650482,59.3240626 69.1964639,59.4935598 69.6801689,59.5908787 C69.8662093,59.6281843 70,59.7944376 70,59.9882645 L70,60.9298254 C70,61.1325732 69.8535427,61.3045034 69.6572107,61.3312661 C69.2186304,61.3929014 69.0650482,61.5072512 69.0650482,62.5485641 L69.0650482,66.0836752 C69.0650482,67.9376014 68.0628051,69 66.3148173,69 L66.3148173,69 Z M64.7916612,68.1890087 L66.3148173,68.1890087 C67.6321414,68.1890087 68.273387,67.5004771 68.273387,66.0836752 L68.273387,62.5485641 C68.273387,61.8876061 68.273387,60.9217155 69.2083388,60.6070509 L69.2083388,60.2964412 C68.3509698,59.9744776 68.273387,59.1788951 68.273387,58.3192443 L68.273387,54.9171358 C68.273387,53.4800592 67.6511413,52.8109913 66.3148173,52.8109913 L64.7916612,52.8109913 L64.7916612,53.5035779 L65.7020715,53.5035779 C66.7668558,53.5035779 66.9687294,54.1977865 66.9687294,55.4783418 L66.9687294,58.3192443 C66.9687294,59.1764622 67.4841008,59.8382311 67.9630558,60.0896384 C68.0936799,60.1585727 68.1768043,60.2956302 68.1783877,60.4464746 C68.179971,60.597319 68.1000132,60.7359985 67.9701808,60.8073657 C67.5078506,61.063639 66.9687294,61.6775594 66.9687294,62.5655949 L66.9687294,65.5216582 C66.9687294,66.8022135 66.7668558,67.4972331 65.7020715,67.4972331 L64.7916612,67.4972331 L64.7916612,68.1890087 L64.7916612,68.1890087 Z" id="Fill-41" fill="#ECBF00"></path>
                        <path d="M74.6013024,42 L27.3986976,42 C27.1786165,42 27,41.776 27,41.5 C27,41.223 27.1786165,41 27.3986976,41 L74.6013024,41 C74.8213835,41 75,41.223 75,41.5 C75,41.776 74.8213835,42 74.6013024,42" id="Fill-42" fill="#ECBF00"></path>
                        <path d="M30.3523506,39 C30.2627364,39 30.1724165,38.958657 30.1032653,38.8759711 C29.9656687,38.7114429 29.9656687,38.4448228 30.1032653,38.2802946 L31.1532338,37.0239742 L30.098326,35.7136547 C29.9635518,35.5449079 29.9677855,35.2782878 30.1082047,35.1162908 C30.2479183,34.9576687 30.4708954,34.9610437 30.6070809,35.1281031 L31.9019009,36.7371045 C32.0345582,36.9033201 32.0324413,37.1657215 31.8969615,37.3277185 L30.6021415,38.8759711 C30.5329903,38.958657 30.4426705,39 30.3523506,39" id="Fill-43" fill="#ECBF00"></path>
                        <path d="M34.5989861,40 L32.4002134,40 C32.1792956,40 32,39.777 32,39.5 C32,39.224 32.1792956,39 32.4002134,39 L34.5989861,39 C34.8207044,39 35,39.224 35,39.5 C35,39.777 34.8207044,40 34.5989861,40" id="Fill-44" fill="#ECBF00"></path>
                        <path d="M14.4050137,42 L14.3419768,41.9951878 C14.1213479,41.9607003 13.9702211,41.7553792 14.0049722,41.5372256 C16.5652375,25.3441317 29.2348334,12.6727751 45.5306636,10.0060075 C45.7448272,9.96750979 45.9589908,10.1182924 45.99455,10.3364461 C46.0309174,10.5554017 45.881407,10.7615248 45.6615862,10.7968144 C29.7108423,13.4074394 17.3095571,25.8109163 14.8034388,41.660739 C14.7719204,41.8588418 14.5997813,42 14.4050137,42" id="Fill-45" fill="#ECBF00"></path>
                        <path d="M50.5645235,85 C31.7609644,85 15.6134109,71.0094189 13.0038753,52.4557879 C12.9734294,52.2367103 13.125659,52.0344233 13.3451901,52.0040403 C13.5551066,51.9728577 13.7658244,52.1255724 13.7970716,52.34465 C16.3513238,70.5057004 32.1575625,84.2004468 50.5645235,84.2004468 C68.8472973,84.2004468 84.2561366,71.154138 87.2045834,53.1777844 C87.2398365,52.9595063 87.4521567,52.8107895 87.664477,52.8483685 C87.8832068,52.8835488 88.0306292,53.0898335 87.9945748,53.307312 C84.9836338,71.6714489 69.2414918,85 50.5645235,85" id="Fill-46" fill="#ECBF00"></path>
                        <path d="M88.5962382,42 C88.4001118,42 88.2289031,41.8581468 88.1991626,41.6608203 C85.8327851,25.7589962 73.429398,13.351199 57.3373877,10.7867466 C57.1179512,10.7518777 56.9692488,10.5482113 57.0054197,10.3326578 C57.0399829,10.1155194 57.2505777,9.96970381 57.4659952,10.0053652 C73.9060494,12.6244985 86.5771008,25.2993601 88.9957252,41.5467037 C89.027877,41.7622572 88.8751556,41.9643386 88.6557191,41.9960376 L88.5962382,42" id="Fill-47" fill="#ECBF00"></path>
                        <path d="M50.6636039,85 C42.0262209,85 33.3186678,81.7308605 26.1443731,75.7940585 L26,75.6747178 L26,33.7097544 C26,32.7669629 26.7775177,32 27.7340903,32 L75.2659097,32 C76.2224823,32 77,32.7669629 77,33.7097544 L77,75.0573286 L76.8733711,75.1742825 C70.0741239,81.510478 60.7656883,85 50.6636039,85 L50.6636039,85 Z M26.8065536,75.3031704 C33.8082458,81.0442536 42.2738329,84.2043953 50.6636039,84.2043953 C60.4962993,84.2043953 69.5547033,80.8350096 76.1934464,74.7136274 L76.1934464,33.7097544 C76.1934464,33.2053411 75.7772647,32.7956047 75.2659097,32.7956047 L27.7340903,32.7956047 C27.2227353,32.7956047 26.8065536,33.2053411 26.8065536,33.7097544 L26.8065536,75.3031704 L26.8065536,75.3031704 Z" id="Fill-48" fill="#ECBF00"></path>
                    </g>
                </g>
            </g>
        </g>
    </g>
</svg>