<?xml version="1.0" encoding="UTF-8"?>
<svg width="100px" height="86px" viewBox="0 0 100 86" version="1.1" xmlns="http://www.w3.org/2000/svg" xmlns:xlink="http://www.w3.org/1999/xlink">
    <!-- Generator: Sketch 46.2 (44496) - http://www.bohemiancoding.com/sketch -->
    <title>Rubyイラスト</title>
    <desc>Created with Sketch.</desc>
    <defs></defs>
    <g id="レッスン一覧---コース一覧（/languages）" stroke="none" stroke-width="1" fill="none" fill-rule="evenodd">
        <g id="Sass-目標物" transform="translate(-831.000000, -541.000000)" fill-rule="nonzero">
            <g id="コース一覧" transform="translate(290.000000, 466.000000)">
                <g id="コースカード_Ruby" transform="translate(480.000000, 0.000000)">
                    <g id="Rubyイラスト" transform="translate(61.000000, 75.000000)">
                        <path d="M88,47.5 C88,68.2105802 71.4344392,85 51,85 C30.5655608,85 14,68.2105802 14,47.5 C14,26.7894198 30.5655608,10 51,10 C71.4344392,10 88,26.7894198 88,47.5" id="Fill-1" fill="#F25B72"></path>
                        <path d="M73.7016165,33 L27.2991708,33 C26.5826584,33 26,33.5864423 26,34.3076079 L26,75.9529383 C32.4084555,81.3624726 40.6664578,85 49.6842782,85 C59.4894749,85 68.3939131,81.6025969 75,75.3213241 L75,34.3076079 C75,33.5864423 74.4181289,33 73.7016165,33" id="Fill-2" fill="#FFFFFF"></path>
                        <polygon id="Fill-3" fill="#FFA2A2" points="26 33 75 33 75 42 26 42"></polygon>
                        <path d="M72,8 C72,8.55212355 71.5523396,9 71.0004824,9 C70.4476604,9 70,8.55212355 70,8 C70,7.44787645 70.4476604,7 71.0004824,7 C71.5523396,7 72,7.44787645 72,8" id="Fill-4" fill="#E63C52"></path>
                        <path d="M13,22 C13,22.5521236 12.5523396,23 12.0004824,23 C11.4476604,23 11,22.5521236 11,22 C11,21.4469112 11.4476604,21 12.0004824,21 C12.5523396,21 13,21.4469112 13,22" id="Fill-5" fill="#E63C52"></path>
                        <path d="M53,10.5004455 C53,11.3281853 52.3281853,12 51.5004455,12 C50.6718147,12 50,11.3281853 50,10.5004455 C50,9.67181467 50.6718147,9 51.5004455,9 C52.3281853,9 53,9.67181467 53,10.5004455" id="Fill-6" fill="#E63C52"></path>
                        <path d="M15,47.5004455 C15,48.3281853 14.328877,49 13.5,49 C12.671123,49 12,48.3281853 12,47.5004455 C12,46.6718147 12.671123,46 13.5,46 C14.328877,46 15,46.6718147 15,47.5004455" id="Fill-7" fill="#E63C52"></path>
                        <path d="M90,47.5004455 C90,48.3281853 89.3281853,49 88.5004455,49 C87.6718147,49 87,48.3281853 87,47.5004455 C87,46.6718147 87.6718147,46 88.5004455,46 C89.3281853,46 90,46.6718147 90,47.5004455" id="Fill-8" fill="#E63C52"></path>
                        <path d="M8.61312287,31 L4.38687713,31 C4.17332095,31 4,30.776 4,30.5 C4,30.223 4.17332095,30 4.38687713,30 L8.61312287,30 C8.8274528,30 9,30.223 9,30.5 C9,30.776 8.8274528,31 8.61312287,31" id="Fill-9" fill="#DC3F60"></path>
                        <path d="M6.5,33 C6.223,33 6,32.8267059 6,32.6131827 L6,28.3868173 C6,28.1732941 6.223,28 6.5,28 C6.776,28 7,28.1732941 7,28.3868173 L7,32.6131827 C7,32.8267059 6.776,33 6.5,33" id="Fill-10" fill="#DC3F60"></path>
                        <path d="M97.6131229,62 L93.3868771,62 C93.173321,62 93,61.776 93,61.5 C93,61.223 93.173321,61 93.3868771,61 L97.6131229,61 C97.8274528,61 98,61.223 98,61.5 C98,61.776 97.8274528,62 97.6131229,62" id="Fill-11" fill="#DC3F60"></path>
                        <path d="M95.5,64 C95.223,64 95,63.826679 95,63.6131229 L95,59.3868771 C95,59.173321 95.223,59 95.5,59 C95.776,59 96,59.173321 96,59.3868771 L96,63.6131229 C96,63.826679 95.776,64 95.5,64" id="Fill-12" fill="#DC3F60"></path>
                        <path d="M36.5,2 C36.224,2 36,1.81372141 36,1.58419958 L36,0.415800416 C36,0.185446985 36.224,0 36.5,0 C36.777,0 37,0.185446985 37,0.415800416 L37,1.58419958 C37,1.81372141 36.777,2 36.5,2" id="Fill-13" fill="#DC3F60"></path>
                        <path d="M36.5,6 C36.224,6 36,5.81379884 36,5.58354115 L36,4.4156276 C36,4.18620116 36.224,4 36.5,4 C36.777,4 37,4.18620116 37,4.4156276 L37,5.58354115 C37,5.81379884 36.777,6 36.5,6" id="Fill-14" fill="#DC3F60"></path>
                        <path d="M38.5841996,4 L37.4158004,4 C37.185447,4 37,3.776 37,3.5 C37,3.223 37.185447,3 37.4158004,3 L38.5841996,3 C38.8137214,3 39,3.223 39,3.5 C39,3.776 38.8137214,4 38.5841996,4" id="Fill-15" fill="#DC3F60"></path>
                        <path d="M34.5841996,4 L33.4158004,4 C33.1862786,4 33,3.776 33,3.5 C33,3.223 33.1862786,3 33.4158004,3 L34.5841996,3 C34.814553,3 35,3.223 35,3.5 C35,3.776 34.814553,4 34.5841996,4" id="Fill-16" fill="#DC3F60"></path>
                        <path d="M37.5018811,3 C37.3734638,3 37.2450464,2.95085872 37.1467269,2.85357904 C36.951091,2.65701392 36.951091,2.3401028 37.1467269,2.14454055 L38.1439679,1.14667168 C38.3396037,0.95110944 38.6576373,0.95110944 38.8532731,1.14667168 C39.048909,1.34323681 39.048909,1.66014793 38.8532731,1.85671305 L37.8560321,2.85357904 C37.7577126,2.95085872 37.6302985,3 37.5018811,3" id="Fill-17" fill="#DC3F60"></path>
                        <path d="M38.4991221,6 C38.3707048,6 38.2422874,5.9508279 38.1439679,5.85348721 L37.1467269,4.8569995 C36.951091,4.66031109 36.951091,4.3432012 37.1467269,4.14751631 C37.3423627,3.9508279 37.6603963,3.9508279 37.8560321,4.14751631 L38.8532731,5.14400401 C39.048909,5.33968891 39.048909,5.65780231 38.8532731,5.85348721 C38.7549536,5.9508279 38.6275395,6 38.4991221,6" id="Fill-18" fill="#DC3F60"></path>
                        <path d="M35.4985584,3 C35.3701893,3 35.2418202,2.95085872 35.1435377,2.85357904 L34.1466717,1.85671305 C33.9511094,1.66014793 33.9511094,1.34323681 34.1466717,1.14667168 C34.3432368,0.95110944 34.6601479,0.95110944 34.8557102,1.14667168 L35.8525762,2.14454055 C36.0491413,2.3401028 36.0491413,2.65701392 35.8525762,2.85357904 C35.7552965,2.95085872 35.6269274,3 35.4985584,3" id="Fill-19" fill="#DC3F60"></path>
                        <path d="M34.5016924,6 C34.3733233,6 34.2449542,5.9508279 34.1466717,5.85348721 C33.9511094,5.65780231 33.9511094,5.33968891 34.1466717,5.14400401 L35.1435377,4.14751631 C35.3401028,3.9508279 35.6570139,3.9508279 35.8525762,4.14751631 C36.0491413,4.3432012 36.0491413,4.66031109 35.8525762,4.8569995 L34.8557102,5.85348721 C34.7574276,5.9508279 34.6300614,6 34.5016924,6" id="Fill-20" fill="#DC3F60"></path>
                        <path d="M78,9 C76.897426,9 76,8.10240154 76,7.00038425 C76,5.89759846 76.897426,5 78,5 C79.102574,5 80,5.89759846 80,7.00038425 C80,8.10240154 79.102574,9 78,9 L78,9 Z M78,5.76849183 C77.3207837,5.76849183 76.7683442,6.32103746 76.7683442,7.00038425 C76.7683442,7.67896254 77.3207837,8.23150817 78,8.23150817 C78.6792163,8.23150817 79.2316558,7.67896254 79.2316558,7.00038425 C79.2316558,6.32103746 78.6792163,5.76849183 78,5.76849183 L78,5.76849183 Z" id="Fill-21" fill="#DC3F60"></path>
                        <path d="M82.6131229,14 L78.3868771,14 C78.173321,14 78,13.777 78,13.5 C78,13.224 78.173321,13 78.3868771,13 L82.6131229,13 C82.826679,13 83,13.224 83,13.5 C83,13.777 82.826679,14 82.6131229,14" id="Fill-22" fill="#FFFFFF"></path>
                        <path d="M80.5,16 C80.224,16 80,15.826679 80,15.6131229 L80,11.3868771 C80,11.1725472 80.224,11 80.5,11 C80.777,11 81,11.1725472 81,11.3868771 L81,15.6131229 C81,15.826679 80.777,16 80.5,16" id="Fill-23" fill="#FFFFFF"></path>
                        <path d="M97.4,52 C97.18,52 97,51.8139535 97,51.5855297 L97,50.4144703 C97,50.1860465 97.18,50 97.4,50 C97.621,50 97.801,50.1860465 97.801,50.4144703 L97.801,51.5855297 C97.801,51.8139535 97.621,52 97.4,52" id="Fill-24" fill="#FFFFFF"></path>
                        <path d="M97.4,56 C97.18,56 97,55.8148914 97,55.5863495 L97,54.4136505 C97,54.1861427 97.18,54 97.4,54 C97.621,54 97.801,54.1861427 97.801,54.4136505 L97.801,55.5863495 C97.801,55.8148914 97.621,56 97.4,56" id="Fill-25" fill="#FFFFFF"></path>
                        <path d="M99.5857438,53.801 L98.4132231,53.801 C98.1859504,53.801 98,53.621 98,53.401 C98,53.18 98.1859504,53 98.4132231,53 L99.5857438,53 C99.8140496,53 100,53.18 100,53.401 C100,53.621 99.8140496,53.801 99.5857438,53.801" id="Fill-26" fill="#FFFFFF"></path>
                        <path d="M96.5855297,53.801 L95.4144703,53.801 C95.1860465,53.801 95,53.621 95,53.401 C95,53.18 95.1860465,53 95.4144703,53 L96.5855297,53 C96.8139535,53 97,53.18 97,53.401 C97,53.621 96.8139535,53.801 96.5855297,53.801" id="Fill-27" fill="#FFFFFF"></path>
                        <path d="M98.2496879,52 C98.1860175,52 98.1217228,51.9756554 98.0730337,51.9269663 C97.9756554,51.829588 97.9756554,51.6710362 98.0730337,51.5736579 L98.5736579,51.0730337 C98.6710362,50.9756554 98.829588,50.9756554 98.9269663,51.0730337 C99.0243446,51.170412 99.0243446,51.3289638 98.9269663,51.4263421 L98.4263421,51.9269663 C98.3776529,51.9756554 98.3139825,52 98.2496879,52" id="Fill-28" fill="#FFFFFF"></path>
                        <path d="M98.7503121,54 C98.6860175,54 98.6223471,53.9756668 98.5736579,53.9270005 L98.0730337,53.4266105 C97.9756554,53.3292778 97.9756554,53.1708002 98.0730337,53.0734675 C98.170412,52.9755108 98.3289638,52.9755108 98.4263421,53.0734675 L98.9269663,53.5732335 C99.0243446,53.6711901 99.0243446,53.8296678 98.9269663,53.9270005 C98.8782772,53.9756668 98.8139825,54 98.7503121,54" id="Fill-29" fill="#FFFFFF"></path>
                        <path d="M95.7505068,52 C95.6862423,52 95.6232257,51.9756592 95.5745593,51.9269777 L95.0735456,51.4264316 C94.975589,51.3290685 94.975589,51.1711655 95.0729217,51.0738025 C95.1702544,50.9751911 95.328108,50.9758153 95.4254407,51.0731783 L95.9264544,51.5737244 C96.024411,51.6710875 96.024411,51.8289905 95.9270783,51.9263536 C95.878412,51.9756592 95.8141474,52 95.7505068,52" id="Fill-30" fill="#FFFFFF"></path>
                        <path d="M95.2494932,54 C95.1852286,54 95.121588,53.9756649 95.0729217,53.9263708 C94.975589,53.8290305 94.975589,53.6711646 95.0735456,53.5732003 L95.5745593,53.0733954 C95.671892,52.9754311 95.8297456,52.9754311 95.9270783,53.0740194 C96.024411,53.1713596 96.024411,53.3292256 95.9264544,53.4265659 L95.4254407,53.9269948 C95.3767743,53.9756649 95.3137577,54 95.2494932,54" id="Fill-31" fill="#FFFFFF"></path>
                        <path d="M2.00038425,25 C0.897598463,25 0,24.1024015 0,22.9996158 C0,21.8975985 0.897598463,21 2.00038425,21 C3.10240154,21 4,21.8975985 4,22.9996158 C4,24.1024015 3.10240154,25 2.00038425,25 L2.00038425,25 Z M2.00038425,21.7684918 C1.32103746,21.7684918 0.768491835,22.3210375 0.768491835,22.9996158 C0.768491835,23.6789625 1.32103746,24.2315082 2.00038425,24.2315082 C2.67973103,24.2315082 3.23150817,23.6789625 3.23150817,22.9996158 C3.23150817,22.3210375 2.67973103,21.7684918 2.00038425,21.7684918 L2.00038425,21.7684918 Z" id="Fill-32" fill="#FFFFFF"></path>
                        <path d="M14.3923567,43 C14.3720011,43 14.3524284,42.9983959 14.3312898,42.9951876 C14.1175557,42.9606988 13.9711517,42.7561724 14.0048168,42.5372089 C16.4842892,26.3443311 28.7579516,13.672516 44.545309,11.005652 C44.751997,10.968757 44.9602507,11.1163369 44.9946987,11.3361025 C45.0299296,11.554264 44.8858744,11.7603946 44.6721403,11.7964875 C29.2190849,14.407207 17.2053483,26.8111326 14.7791137,42.6607268 C14.7485802,42.8588367 14.5818207,43 14.3923567,43" id="Fill-33" fill="#DC3F60"></path>
                        <path d="M51.0632703,86 C32.5098235,86 16.5777329,72.0087301 14.0038077,53.4541857 C13.9737681,53.2358969 14.1247569,53.0336 14.3405682,53.0032155 C14.5492648,52.9760293 14.7555899,53.123954 14.7864201,53.3438419 C17.3057995,71.5049868 32.9011297,85.2004075 51.0632703,85.2004075 C69.1020902,85.2004075 84.3061142,72.1534563 87.2144282,54.1778169 C87.249211,53.9587286 87.4579076,53.8116035 87.6689758,53.8475852 C87.8839966,53.8827673 88.0302423,54.0890621 87.994669,54.3073509 C85.0231136,72.6707927 69.4910248,86 51.0632703,86" id="Fill-34" fill="#DC3F60"></path>
                        <path d="M87.5970243,43 C87.4008978,43 87.2296891,42.8581564 87.1999486,42.6608434 C84.8335708,26.7608946 72.4309858,14.3539423 56.3373658,11.7880796 C56.118733,11.7532131 55.9692268,11.550353 56.0053977,11.3340218 C56.0399609,11.1176906 56.2513595,10.9655455 56.4659733,11.0067515 C72.9068335,13.6272912 85.5778866,26.3020822 87.9957075,42.5467346 C88.0278594,42.7622734 87.8759418,42.964341 87.6557014,42.9960379 C87.6364103,42.9984152 87.6163154,43 87.5970243,43" id="Fill-35" fill="#DC3F60"></path>
                        <path d="M41.4386957,52 L61.770892,52 C61.8964188,52 62.0140509,52.0626496 62.0835249,52.1660215 L66.9372309,59.3871751 C67.0335471,59.5312692 67.0177576,59.7215675 66.8985465,59.8476499 L51.770584,75.8820408 C51.6229518,76.0386649 51.3726875,76.039448 51.2242658,75.8836071 L36.1026192,60.0614418 C35.9818292,59.9353594 35.9660396,59.7419286 36.0639348,59.5970514 L41.1276417,52.1636722 C41.1971157,52.0610834 41.3139583,52 41.4386957,52" id="Fill-36" fill="#FF7684"></path>
                        <path d="M50.9953629,76 C50.7831721,76 50.5781338,75.9123112 50.4326997,75.7590533 L35.210594,59.7996903 C34.9626408,59.5382039 34.9300572,59.1345194 35.1319166,58.8374834 L40.2284689,51.3389054 C40.3731083,51.1263983 40.6131144,51 40.8698096,51 L61.3378753,51 C61.5985442,51 61.8401397,51.1287682 61.9839844,51.3436453 L66.8683459,58.6281363 C67.0694106,58.9259622 67.0376217,59.3177969 66.7904632,59.5808633 L51.5619997,75.7566833 C51.4165656,75.9107312 51.2107326,76 50.9969523,76 L50.9953629,76 L50.9953629,76 Z M40.8809357,51.7899893 L35.7899464,59.2798774 L51.0104626,75.2163307 L66.2095214,59.0420906 L61.3219809,51.7812994 L40.8809357,51.7899893 L40.8809357,51.7899893 Z" id="Fill-37" fill="#E63C52"></path>
                        <path d="M44.4914862,61 L40.365271,61 C40.0449228,61 39.8802654,61.3840811 40.1011671,61.6169813 L49,71 C48.9975546,70.9566887 48.9869578,70.9109259 48.9657643,70.865163 L44.4914862,61" id="Fill-38" fill="#FFBEC4"></path>
                        <polyline id="Fill-39" fill="#FFBEC4" points="48 61 52.5 71 57 61 48 61"></polyline>
                        <path d="M59.2301711,61 C59.0606532,61 58.907465,61.1019989 58.8374806,61.2610209 L55,70 L63,61 L59.2301711,61" id="Fill-40" fill="#FFBEC4"></path>
                        <path d="M55.6296966,59 C55.9546898,59 56.1217347,58.6010987 55.896803,58.3610818 L52.7477591,55 L49,59 L55.6296966,59" id="Fill-41" fill="#FFBEC4"></path>
                        <path d="M55.1099394,54.6709506 L58.2607471,58 L60,54 L55.3920752,54 C55.0477294,54 54.8707374,54.418347 55.1099394,54.6709506" id="Fill-42" fill="#FFBEC4"></path>
                        <path d="M45.0330005,54.4347024 L46.4339711,57 L50,54 L45.3845324,54 C45.1069167,54 44.9212666,54.230503 45.0330005,54.4347024" id="Fill-43" fill="#FFBEC4"></path>
                        <path d="M63.6201696,59 C63.9229863,59 64.1036584,58.6641286 63.9357096,58.4128596 L62.3232323,56 L61,59 L63.6201696,59" id="Fill-44" fill="#FFBEC4"></path>
                        <path d="M43.5989996,59 C43.8881753,59 44.0815559,58.6912313 43.9660647,58.4160448 L42.9454448,56 L41,59 L43.5989996,59" id="Fill-45" fill="#FFBEC4"></path>
                        <path d="M48.256465,72 C48.0623264,72 47.8705267,71.9177803 47.7239482,71.7565972 L38.2033587,61.3008615 C38.0006437,61.0778102 37.9429479,60.7505597 38.0598989,60.4664541 C38.1760702,60.1831626 38.4427184,60 38.7382146,60 L43.7055125,60 C43.9939916,60 44.2575211,60.1774642 44.3775908,60.450987 L48.9308823,70.9059087 C49.0836982,71.2551387 48.976883,71.6499559 48.6720308,71.8640526 C48.5433847,71.9552269 48.3991452,72 48.256465,72 L48.256465,72 Z M38.8356737,60.813242 L48.1192425,71.0092938 L43.6680882,60.7888203 L38.8356737,60.813242 L38.8356737,60.813242 Z" id="Fill-46" fill="#E63C52"></path>
                        <path d="M51.5914019,73 C51.2978668,73 51.0420829,72.8202956 50.9242066,72.532106 L46.0319549,60.5805198 C45.9803358,60.4529876 45.9918923,60.3047522 46.0620018,60.1871576 C46.1336521,60.0703911 46.2546101,60 46.3848133,60 L56.271014,60 C56.5183231,60 56.7463713,60.132501 56.8811972,60.3552682 C57.016023,60.5780354 57.0375951,60.8562874 56.9382092,61.0989298 L52.2593676,72.5312779 C52.1414913,72.8194674 51.8864778,72.9991719 51.5929427,73 L51.5914019,73 L51.5914019,73 Z M46.9741949,60.8239903 L51.6291531,72.1975411 L56.2324923,60.7660211 L46.9741949,60.8239903 L46.9741949,60.8239903 Z" id="Fill-47" fill="#E63C52"></path>
                        <path d="M53.7745171,72 C53.6278018,72 53.4802758,71.9556529 53.3465298,71.8669587 C53.0255394,71.6509718 52.9120579,71.252669 53.0717426,70.8970709 L57.7455579,60.456611 C57.8695769,60.1790309 58.1435536,60 58.4442795,60 L63.2315763,60 C63.540408,60 63.8095212,60.1782097 63.9335402,60.4640022 C64.0575593,60.7506159 64.005682,61.0725431 63.7973625,61.3033123 L54.3354398,71.7445935 C54.1830504,71.9129483 53.9804049,72 53.7745171,72 L53.7745171,72 Z M58.4442795,60.8212428 L53.9188007,70.9898713 L63.1334959,60.8212428 L58.4442795,60.8212428 L58.4442795,60.8212428 Z" id="Fill-48" fill="#E63C52"></path>
                        <path d="M55.2851444,59 L47.7146494,59 C47.4277452,59 47.1702864,58.8094569 47.0570348,58.5143681 C46.9452932,58.2201223 47.000409,57.8811917 47.1989769,57.6493361 L50.9830919,53.2348068 C51.2496108,52.9228558 51.747918,52.9203264 52.0167019,53.23565 L55.801572,57.6493361 C56.0001398,57.8811917 56.0545006,58.2209654 55.942759,58.5152112 C55.8295074,58.8094569 55.5712936,59 55.2851444,59 L55.2851444,59 Z M47.8082707,58.156889 L55.2851444,58.156889 L51.470829,53.8173966 L47.8082707,58.156889 L47.8082707,58.156889 Z" id="Fill-49" fill="#E63C52"></path>
                        <path d="M57.5224801,59 C57.3231264,59 57.1307812,58.9104863 56.9898319,58.7478124 L53.2052266,54.3779945 C53.0004218,54.1421604 52.9435749,53.7952948 53.0588262,53.4949075 C53.175635,53.1936594 53.4419591,53 53.737096,53 L59.2621526,53 C59.5121234,53 59.7426261,53.1377134 59.8796818,53.3683833 C60.0167375,53.6007746 60.037763,53.8899727 59.9373075,54.1430211 L58.1984137,58.5128389 C58.0979581,58.7633051 57.8931534,58.9406111 57.6509698,58.9879501 C57.6081399,58.9956965 57.5645313,59 57.5224801,59 L57.5224801,59 Z M53.737096,53.8598479 L57.5528504,58.1530627 L59.1998545,53.8598479 L53.737096,53.8598479 L53.737096,53.8598479 Z" id="Fill-50" fill="#E63C52"></path>
                        <path d="M45.4698674,59 C45.4275985,59 45.3853295,58.9958182 45.3430606,58.9882911 C45.1083169,58.9414553 44.9105586,58.7691664 44.8139439,58.5274603 L43.0605371,54.1106774 C42.9631676,53.8647895 42.9843021,53.5837747 43.1163925,53.3579593 C43.2492378,53.1338166 43.4726594,53 43.7149511,53 L49.2853952,53 C49.5722203,53 49.8303628,53.1881795 49.9420736,53.4809033 C50.055294,53.7727906 49.9994386,54.1106774 49.8016803,54.339002 L45.9853977,58.7557848 C45.8487784,58.9138556 45.6615873,59 45.4698674,59 L45.4698674,59 Z M43.7760901,53.8355171 L45.5053432,58.1912462 L49.2559579,53.7610817 L43.7760901,53.8355171 L43.7760901,53.8355171 Z" id="Fill-51" fill="#E63C52"></path>
                        <path d="M63.3056263,59 L59.6945781,59 C59.4592662,59 59.2422808,58.8731614 59.1132624,58.6612384 C58.9842441,58.4485276 58.9644515,58.1838209 59.0590161,57.9529903 L60.4950785,54.4456259 C60.5969737,54.1966755 60.8176244,54.0265069 61.0705297,54.0036602 C61.3197697,53.9760866 61.5682767,54.1060765 61.7075579,54.3337558 L63.8832767,57.8395445 C64.0254902,58.0687995 64.0386852,58.3618677 63.9177305,58.6053033 C63.7967758,58.848739 63.56293,59 63.3056263,59 L63.3056263,59 Z M61.0976529,54.7702068 L59.730498,58.2704808 L63.2337865,58.2137579 L61.0976529,54.7702068 L61.0976529,54.7702068 Z" id="Fill-52" fill="#E63C52"></path>
                        <path d="M43.2949826,59 L39.7040767,59 C39.4437044,59 39.2049058,58.8449338 39.0821589,58.5966672 C38.9601558,58.3467938 38.9750343,58.0471063 39.1200988,57.8133018 L41.2960673,54.3359628 C41.4389001,54.1061756 41.68365,53.9719992 41.9425345,54.0049407 C42.1984432,54.0290442 42.4216195,54.2025898 42.5242806,54.4556771 L43.9407058,57.9322127 C44.0359277,58.167624 44.0158418,58.4375838 43.8849118,58.6545158 C43.7547256,58.8706443 43.5345251,59 43.2949826,59 L43.2949826,59 Z M39.7777248,58.1965483 L43.2949826,58.1965483 L41.8428491,54.7794681 L39.7777248,58.1965483 L39.7777248,58.1965483 Z" id="Fill-53" fill="#E63C52"></path>
                        <path d="M74.6013024,43 L27.3986976,43 C27.1778191,43 27,42.776 27,42.5 C27,42.224 27.1778191,42 27.3986976,42 L74.6013024,42 C74.8213835,42 75,42.224 75,42.5 C75,42.776 74.8213835,43 74.6013024,43" id="Fill-54" fill="#DC3F60"></path>
                        <path d="M30.3530874,39 C30.2627596,39 30.1724317,38.9595137 30.1032745,38.8768542 C29.9656656,38.7123787 29.9656656,38.4450004 30.1032745,38.2805249 L31.1533356,37.0254499 L30.0983347,35.7138628 C29.9635486,35.5460134 29.9677827,35.2786352 30.1082143,35.1175335 C30.2479401,34.9564318 30.4730541,34.9614926 30.6071344,35.129342 L31.901363,36.738672 C32.0347377,36.903991 32.0326207,37.1671519 31.8964232,37.3290971 L30.6021946,38.8768542 C30.5337431,38.9595137 30.4434152,39 30.3530874,39" id="Fill-55" fill="#DC3F60"></path>
                        <path d="M34.5995729,40 L32.4004271,40 C32.1785905,40 32,39.776 32,39.5 C32,39.223 32.1785905,39 32.4004271,39 L34.5995729,39 C34.8206086,39 35,39.223 35,39.5 C35,39.776 34.8206086,40 34.5995729,40" id="Fill-56" fill="#DC3F60"></path>
                        <path d="M50.181177,85 C41.689298,85 33.1515554,81.7419989 26.1407537,75.8242915 C26.0513988,75.7495046 26,75.6373244 26,75.5195749 L26,33.71055 C26,32.7669629 26.7614936,32 27.6993247,32 L74.2998846,32 C75.2377157,32 76,32.7669629 76,33.71055 L76,74.885478 C76,74.9952714 75.9549272,75.0994956 75.8766428,75.1750781 C69.2106087,81.5112736 60.0845471,85 50.181177,85 L50.181177,85 Z M26.7899606,75.334199 C33.6323322,81.0553921 41.9312679,84.2043953 50.181177,84.2043953 C59.8204362,84.2043953 68.7013648,80.8350096 75.2092486,74.714423 L75.2092486,33.71055 C75.2092486,33.2061367 74.8012209,32.7956047 74.2998846,32.7956047 L27.6993247,32.7956047 C27.1979883,32.7956047 26.7899606,33.2061367 26.7899606,33.71055 L26.7899606,75.334199 L26.7899606,75.334199 Z" id="Fill-57" fill="#DC3F60"></path>
                    </g>
                </g>
            </g>
        </g>
    </g>
</svg>