<?xml version="1.0" encoding="UTF-8"?>
<svg width="100px" height="100px" viewBox="0 0 100 100" version="1.1" xmlns="http://www.w3.org/2000/svg" xmlns:xlink="http://www.w3.org/1999/xlink">
    <!-- Generator: Sketch 46.2 (44496) - http://www.bohemiancoding.com/sketch -->
    <title>にんじゃわんこ 丸プロフィール</title>
    <desc>Created with Sketch.</desc>
    <defs>
        <rect id="path-1" x="2.27373675e-13" y="0" width="100" height="100" rx="50"></rect>
        <polygon id="path-3" points="5.7402439e-16 14.7041868 5.7402439e-16 0.735001868 52.7008195 0.735001868 52.7008195 14.7041868 0 14.7041868"></polygon>
        <polygon id="path-5" points="78.4005086 0.510483291 78.4005086 64.954058 0.603717079 64.954058 0.603717079 0.510483291 78.4005086 0.510483291"></polygon>
        <path d="M0.561310967,11.9703724 C2.97102932,3.30838079 12.4193018,0.360815696 23.7089159,0.360815696 C34.9972176,0.360815696 44.4464387,3.30838126 46.8564452,11.9703745 L0.561300604,11.9703745 L0.561310967,11.9703724 Z" id="path-7"></path>
        <path d="M0.428872507,12.481713 C2.60460638,3.42402261 12.1999696,0.360815696 23.7089159,0.360815696 C35.2165233,0.360815696 44.8128978,3.42402261 46.9888992,12.481713 L0.42886776,12.481713 L0.428872507,12.481713 Z" id="path-9"></path>
    </defs>
    <g id="レッスン一覧---コース一覧（/languages）" stroke="none" stroke-width="1" fill="none" fill-rule="evenodd">
        <g id="Sass-目標物" transform="translate(-591.000000, -110.000000)">
            <g id="プロフィール-背景-白" transform="translate(482.000000, 82.000000)">
                <g id="にんじゃわんこ-丸プロフィール" transform="translate(109.000000, 28.000000)">
                    <g id="にんじゃわんこ">
                        <mask id="mask-2" fill="white">
                            <use xlink:href="#path-1"></use>
                        </mask>
                        <use id="Mask" fill="#D1E7F3" xlink:href="#path-1"></use>
                        <g mask="url(#mask-2)">
                            <g transform="translate(-3.000000, 17.489451)">
                                <g id="Group-49">
                                    <path d="M69.3452627,49.4918207 C64.1402026,45.1559597 42.0745007,45.5504026 36.2187135,49.4918207 C27.2802959,55.5078278 36.2187135,83.5223073 36.2187135,83.5223073 L36.2262801,83.5223073 C36.2527632,83.663825 36.2860562,83.80459 36.3322124,83.9408384 L38.0763124,89.0716072 L38.4773419,90.2519249 C39.7787961,94.0796772 41.907279,94.0796772 43.2087332,90.2519249 L43.6097627,89.0716072 C43.6097627,89.0716072 44.5291039,86.5596683 45.3750491,85.4553787 C46.2209943,84.3510891 60.2033036,84.0131027 60.6747025,85.4553787 C61.1453446,86.8969019 62.4392322,90.2519249 62.4392322,90.2519249 C63.7406864,94.0796772 65.8691693,94.0796772 67.1706235,90.2519249 L67.571653,89.0716072 L69.2529502,83.8256671 C69.2869999,83.7263036 69.313483,83.6246818 69.3369394,83.5223073 L69.3452627,83.5223073 C69.3452627,83.5223073 77.2901865,56.1092779 69.3452627,49.4918207" id="Fill-1" fill="#7579A3"></path>
                                    <path d="M63.3230104,63.4291296 C63.3230104,69.3420095 52.5610436,74.1347919 52.5610436,74.1347919 C52.5610436,74.1347919 41.7998334,69.3420095 41.7998334,63.4291296 C41.7998334,57.5162498 43.9782558,52.7227146 52.5610436,52.7227146 C61.6099335,52.7227146 63.3230104,57.5162498 63.3230104,63.4291296" id="Fill-7" fill="#FFFFFF"></path>
                                    <path d="M72.5721124,60.9716901 C72.5721124,62.8400246 63.4271267,68.5752546 52.1460915,68.5752546 C40.8650563,68.5752546 32.2792419,63.6718174 32.2792419,61.8027301 C32.2792419,59.9351483 40.8650563,61.3254843 52.1460915,61.3254843 C63.4271267,61.3254843 72.5721124,59.1033556 72.5721124,60.9716901" id="Fill-9" fill="#5E5884"></path>
                                    <path d="M49.3609796,73.1153377 C49.6946664,72.8691872 50.9053214,72.0441693 52.3066547,71.0881721 C54.9557193,69.2815634 60.5179226,65.0119447 61.4296972,64.2719879 L60.8879291,63.5643995 C60.0056642,64.2802682 54.460864,68.53709 51.823906,70.3361712 C50.3582567,71.3358281 49.1998111,72.1262194 48.8525044,72.3814029 L49.3609796,73.1153377 Z" id="Fill-11" fill="#7579A3"></path>
                                    <path d="M44.4020608,70.7023859 C44.7365042,70.4569882 45.9464026,69.6312175 47.3477359,68.6752203 C49.9968005,66.8686116 53.6249824,64.3935576 54.5375136,63.6543535 L53.9957455,62.9460124 C53.1127239,63.6618811 49.5019452,66.1241382 46.8657438,67.9232194 C45.3993379,68.9228763 44.241649,69.7132676 43.8943423,69.9684511 L44.4020608,70.7023859 Z" id="Fill-13" fill="#7579A3"></path>
                                    <path d="M56.3733963,73.1153377 C56.0389529,72.8691872 54.8282978,72.0441693 53.4269646,71.0881721 C50.7779,69.2815634 45.2156966,65.0119447 44.303922,64.2719879 L44.8456902,63.5643995 C45.7287117,64.2802682 51.2735119,68.53709 53.9097133,70.3361712 C55.3753626,71.3358281 56.5338081,72.1262194 56.8811148,72.3814029 L56.3733963,73.1153377 Z" id="Fill-15" fill="#7579A3"></path>
                                    <path d="M61.3315585,70.7023859 C60.997115,70.4569882 59.7872166,69.6312175 58.3858834,68.6752203 C55.7368188,66.8686116 52.1086369,64.3935576 51.1961056,63.6543535 L51.7386304,62.9460124 C52.6208953,63.6618811 56.231674,66.1241382 58.8678754,67.9232194 C60.3342814,68.9228763 61.4927269,69.7132676 61.8400336,69.9684511 L61.3315585,70.7023859 Z" id="Fill-17" fill="#7579A3"></path>
                                    <path d="M66.4582287,76.6468061 C66.4582287,76.6468061 66.5588644,76.4977609 66.7442459,76.2448357 C66.9311408,75.990405 67.1740285,75.6238139 67.4524792,75.168398 C67.5970011,74.9455829 67.7392531,74.6949159 67.8928549,74.4322049 C68.0525101,74.1732577 68.1924921,73.8834475 68.3589571,73.5966484 C68.6623776,73.007995 68.9892544,72.3809512 69.2684618,71.7320776 C69.421307,71.4129101 69.5514524,71.0847095 69.6868944,70.7655419 C69.8072033,70.4395996 69.9464286,70.1264541 70.0508476,69.8125558 C70.1613199,69.5009158 70.2680088,69.1998143 70.3535114,68.9092514 C70.4496071,68.6209468 70.5124098,68.3431807 70.5873191,68.0879972 C70.6448252,67.8298027 70.6977914,67.5926853 70.7447043,67.382667 C70.7757273,67.1711433 70.8082637,66.9844604 70.8256668,66.8301459 C70.8460966,66.5215169 70.8634998,66.340856 70.8634998,66.340856 C70.8634998,66.340856 70.8884696,66.5170004 70.9202493,66.8324041 C70.9300858,67.1463024 70.9353824,67.6009656 70.8612298,68.1399372 C70.8165869,68.406412 70.7825372,68.7007387 70.7038447,69.0010874 C70.6395286,69.3051999 70.5585661,69.6221091 70.4571737,69.9457932 C70.2634689,70.5946668 70.0062047,71.2706396 69.7118642,71.9285463 C69.5650722,72.2582524 69.4016338,72.580431 69.2404654,72.8965875 C69.0808102,73.2134968 68.8984553,73.51234 68.7297202,73.8059139 C68.374847,74.3817704 68.021487,74.905687 67.6802336,75.327229 C67.5183085,75.5425165 67.3556268,75.7307049 67.2035382,75.8917942 C67.0559896,76.0558945 66.9296275,76.198165 66.8153719,76.3058087 C66.5914007,76.5256128 66.4582287,76.6468061 66.4582287,76.6468061" id="Fill-19" fill="#5E5884"></path>
                                    <path d="M62.5167898,74.8858895 C62.5167898,74.8858895 62.5584061,74.4929521 62.6635817,73.9118263 C62.7702707,73.3314533 62.9488423,72.5674083 63.1372505,71.8093854 C63.333982,71.052868 63.5307134,70.2955978 63.6775053,69.7280216 C63.7561979,69.4442334 63.8220273,69.2078688 63.8674269,69.042263 C63.9173664,68.8766572 63.9453628,68.7818102 63.9453628,68.7818102 C63.9453628,68.7818102 63.9370395,69.1777587 63.8689402,69.7649065 C63.8000842,70.3520543 63.6585889,71.1281433 63.467154,71.8906828 C63.2757192,72.653975 63.0411548,73.4029649 62.8519899,73.9607553 C62.6597984,74.5170402 62.5167898,74.8858895 62.5167898,74.8858895" id="Fill-21" fill="#5E5884"></path>
                                    <path d="M65.6003282,77.4867286 C64.6968769,78.3177687 63.8933046,78.5676829 63.0420628,78.0091397 C62.1900643,77.4505965 62.1605545,76.5329898 62.5169411,75.4633269 C62.8377647,74.5005549 64.2186682,75.1494286 65.0706667,75.7079718 C65.9219085,76.266515 66.3494211,76.7979591 65.6003282,77.4867286" id="Fill-23" fill="#B2B2B2"></path>
                                    <path d="M39.335999,76.6468061 C39.335999,76.6468061 39.2028269,76.5256128 38.9780991,76.3058087 C38.8646002,76.198165 38.7374814,76.0558945 38.5906895,75.8917942 C38.4386009,75.7307049 38.2759191,75.5425165 38.1132374,75.327229 C37.771984,74.905687 37.418624,74.3817704 37.0645074,73.8059139 C36.8950157,73.51234 36.7134174,73.2134968 36.5530057,72.8965875 C36.3918372,72.580431 36.2291554,72.2582524 36.0823635,71.9285463 C35.7872663,71.2706396 35.5300021,70.5946668 35.337054,69.9457932 C35.2356616,69.6221091 35.1539424,69.3051999 35.0896263,69.0010874 C35.0116904,68.7007387 34.9776408,68.406412 34.9329978,68.1399372 C34.8588452,67.6009656 34.8641418,67.1463024 34.8739784,66.8324041 C34.9057581,66.5170004 34.9307279,66.340856 34.9307279,66.340856 C34.9307279,66.340856 34.948131,66.5215169 34.9678042,66.8301459 C34.9852073,66.9844604 35.0185004,67.1711433 35.0495234,67.382667 C35.0956796,67.5926853 35.1494024,67.8298027 35.2069086,68.0879972 C35.2810612,68.3431807 35.3446206,68.6209468 35.4407163,68.9092514 C35.5262188,69.1998143 35.6329078,69.5009158 35.7433801,69.8125558 C35.8477991,70.1264541 35.9862678,70.4395996 36.1065766,70.7655419 C36.2427753,71.0847095 36.3721641,71.4129101 36.5250093,71.7320776 C36.8042166,72.3809512 37.1318501,73.007995 37.4352705,73.5966484 C37.6009789,73.8834475 37.7417176,74.1732577 37.9006161,74.4322049 C38.0542179,74.6949159 38.1964699,74.9455829 38.3409918,75.168398 C38.6194425,75.6238139 38.8623302,75.990405 39.0492251,76.2448357 C39.2346066,76.4977609 39.335999,76.6468061 39.335999,76.6468061" id="Fill-25" fill="#5E5884"></path>
                                    <path d="M43.2774379,74.8858895 C43.2774379,74.8858895 43.1344292,74.5170402 42.9422377,73.9607553 C42.7523162,73.4029649 42.5185085,72.653975 42.3270736,71.8906828 C42.1348822,71.1281433 41.9941435,70.3520543 41.9245308,69.7649065 C41.8571881,69.1777587 41.8488649,68.7818102 41.8488649,68.7818102 C41.8488649,68.7818102 41.8768613,68.8766572 41.9268008,69.042263 C41.9722004,69.2078688 42.0372731,69.4442334 42.1167223,69.7280216 C42.2635143,70.2955978 42.4602457,71.052868 42.6569771,71.8093854 C42.8446287,72.5674083 43.0232003,73.3314533 43.1298893,73.9118263 C43.2358216,74.4929521 43.2774379,74.8858895 43.2774379,74.8858895" id="Fill-27" fill="#5E5884"></path>
                                    <path d="M40.1931428,77.4867286 C41.0973508,78.3177687 41.9009231,78.5676829 42.7521649,78.0091397 C43.6041634,77.4505965 43.6329165,76.5329898 43.2772865,75.4633269 C42.9564629,74.5005549 41.5755595,75.1494286 40.723561,75.7079718 C39.8723192,76.266515 39.4448066,76.7979591 40.1931428,77.4867286" id="Fill-29" fill="#B2B2B2"></path>
                                    <g id="Group-33" transform="translate(0.000000, 50.434494)">
                                        <mask id="mask-4" fill="white">
                                            <use xlink:href="#path-3"></use>
                                        </mask>
                                        <g id="Clip-32"></g>
                                        <path d="M52.1874051,4.06163283 C57.1162846,6.66616043 25.5666136,-8.19169097 -0.000151331883,9.71405993 C9.09565149,9.76825819 15.612759,11.5643284 16.7333716,13.0419838 C17.8524709,14.5196392 23.51077,15.8377108 27.0753925,13.1631771 C30.6392583,10.4901489 50.0112527,2.91217802 52.1874051,4.06163283" id="Fill-31" fill="#5E5884" mask="url(#mask-4)"></path>
                                    </g>
                                    <path d="M50.7716197,46.9189087 C55.5438706,47.5346612 22.3310623,49.3465392 12.5421595,61.4892082 C9.86888174,63.9266245 6.20740684,67.3042301 3.97072161,70.9701404 C12.5058398,67.8386852 19.1856291,66.7374066 20.7556974,67.7295359 C22.3265223,68.7201597 28.0892404,67.9749336 30.4817975,64.224715 C32.8735979,60.4744963 48.3283665,46.6042577 50.7716197,46.9189087" id="Fill-34" fill="#5E5884"></path>
                                    <path d="M50.8270072,47.4213718 C56.3619708,48.135735 21.5768242,45.2632271 3.97087294,70.9705167 C12.5052345,67.8383088 19.2410166,67.2398697 20.8110849,68.2312462 C22.3819098,69.2226228 28.1446279,68.4773967 30.537185,64.727178 C32.9289854,60.9769594 48.3837539,47.1067208 50.8270072,47.4213718" id="Fill-36" fill="#666A99"></path>
                                    <g id="Group-40" transform="translate(15.889848, 0.000000)">
                                        <mask id="mask-6" fill="white">
                                            <use xlink:href="#path-5"></use>
                                        </mask>
                                        <g id="Clip-39"></g>
                                        <path d="M78.3076664,17.6751072 C67.8029638,4.83313004 45.2764564,1.52854155 36.170817,2.03514475 C29.1936605,2.42431838 23.0790958,3.74464827 17.6205548,6.90696632 C11.4000577,1.84168706 1.71708721,-0.658960539 0.843145585,1.04075719 C-0.232067442,3.13190681 2.50325634,14.0227465 5.27792641,19.918313 C3.36736139,23.7912305 1.75340686,31.4459823 1.86614911,37.6215732 C2.23464225,57.877421 17.42685,64.954058 36.170817,64.954058 C55.4474722,64.954058 70.8341414,57.3866256 70.6759996,37.6215732 C70.6381666,32.9221322 69.6756958,26.8383773 68.2251798,23.0000865 C73.8569958,21.3681166 79.1747981,18.7357371 78.3076664,17.6751072" id="Fill-38" fill="#7579A3" mask="url(#mask-6)"></path>
                                    </g>
                                    <path d="M52.2959858,30.4410562 C39.2814438,30.4410562 28.730585,34.2590227 28.730585,46.0591888 C28.730585,57.8601076 39.2814438,58.9877326 52.2959858,58.9877326 C65.3112843,58.9877326 75.8621432,57.8601076 75.8621432,46.0591888 C75.8621432,34.2590227 65.3112843,30.4410562 52.2959858,30.4410562" id="Fill-41" fill="#E1C081"></path>
                                    <path d="M62.3491141,53.275838 C62.3491141,56.3162099 58.9025304,57.877421 53.1594855,57.877421 C47.4164405,57.877421 43.9706136,56.3162099 43.9706136,53.275838 C43.9706136,50.2362187 47.4164405,46.8691517 53.1594855,46.8691517 C58.9025304,46.8691517 62.3491141,50.2362187 62.3491141,53.275838" id="Fill-43" fill="#C6C7C7"></path>
                                    <path d="M62.4096468,52.6465359 C62.4096468,55.7779911 58.8601575,57.3866256 52.9430809,57.3866256 C47.0275176,57.3866256 43.4772716,55.7779911 43.4772716,52.6465359 C43.4772716,49.5150808 47.0275176,46.046392 52.9430809,46.046392 C58.8601575,46.046392 62.4096468,49.5150808 62.4096468,52.6465359" id="Fill-45" fill="#FFFFFF"></path>
                                    <path d="M55.298259,50.3437872 C55.298259,51.2230035 54.2011028,51.936614 52.8474391,51.936614 C51.4937755,51.936614 50.3958626,51.2230035 50.3958626,50.3437872 C50.3958626,49.464571 51.4937755,49.2824046 52.8474391,49.2824046 C54.2011028,49.2824046 55.298259,49.464571 55.298259,50.3437872" id="Fill-47" fill="#A0774B"></path>
                                </g>
                                <g id="Group-56" transform="translate(28.374728, 29.806514)">
                                    <g id="Group-52">
                                        <mask id="mask-8" fill="white">
                                            <use xlink:href="#path-7"></use>
                                        </mask>
                                        <g id="Clip-51"></g>
                                        <path d="M53.2652378,11.9703745 C53.2652378,11.9703745 41.8741575,8.54419411 23.68077,8.54419411 C5.20744908,8.54419411 -5.84725343,11.9703745 -5.84725343,11.9703745 C-10.0172706,11.9703745 -13.3970668,9.16464023 -13.3970668,4.44266091 C-13.3970668,-0.279318411 -10.0172706,-4.10631793 -5.84725343,-4.10631793 L53.2652378,-4.10631793 C57.4344922,-4.10631793 60.8142884,-0.279318411 60.8142884,4.44266091 C60.8142884,9.16464023 57.4344922,11.9703745 53.2652378,11.9703745" id="Fill-50" fill="#C6C7C7" mask="url(#mask-8)"></path>
                                    </g>
                                    <g id="Group-55">
                                        <mask id="mask-10" fill="white">
                                            <use xlink:href="#path-9"></use>
                                        </mask>
                                        <g id="Clip-54"></g>
                                        <path d="M53.2652378,12.481713 C53.2652378,12.481713 41.9031424,7.38793668 23.7089922,7.38793668 C5.23567126,7.38793668 -5.84725343,12.481713 -5.84725343,12.481713 C-10.0172706,12.481713 -13.3970668,8.65392914 -13.3970668,3.93194982 C-13.3970668,-0.790029497 -10.0172706,-4.6178134 -5.84725343,-4.6178134 L53.2652378,-4.6178134 C57.4344922,-4.6178134 60.8142884,-0.790029497 60.8142884,3.93194982 C60.8142884,8.65392914 57.4344922,12.481713 53.2652378,12.481713" id="Fill-53" fill="#C6C7C7" mask="url(#mask-10)"></path>
                                    </g>
                                </g>
                                <g id="Group-93" transform="translate(20.492859, 18.040785)">
                                    <polygon id="Fill-57" fill="#FFFFFF" points="32.6753325 6.70610283 38.658256 12.6624361 32.6753325 18.6187695 26.6924089 12.6624361"></polygon>
                                    <path d="M28.0768145,34.3246159 C28.0768145,34.3246159 28.1134774,34.4128241 28.1784012,34.5489384 C28.2181194,34.58848 28.2433251,34.6333445 28.2983194,34.6972194 C28.3708814,34.7595735 28.4319862,34.8432192 28.5358643,34.9101357 C28.6290491,34.9861772 28.7390378,35.0576563 28.8650664,35.1253333 C28.9849846,35.199854 29.1301085,35.2515622 29.2714133,35.3139163 C29.5670078,35.4211348 29.8962099,35.4918534 30.2269396,35.5116242 C30.3903949,35.5040201 30.5591969,35.5215096 30.7150142,35.4842493 C30.7936866,35.4698014 30.8731228,35.4614368 30.9495038,35.4439473 C31.0228296,35.419614 31.0961554,35.3960411 31.1679535,35.3724682 C31.314605,35.3344475 31.4322317,35.243958 31.5582604,35.1899686 C31.6674852,35.1070833 31.7713634,35.0287605 31.8668396,34.956521 C31.9485673,34.8675525 32.0234207,34.7854276 32.0898721,34.7131881 C32.1578512,34.6417091 32.1945141,34.5588238 32.2365236,34.5010323 C32.3151961,34.3808866 32.3602609,34.3116888 32.3602609,34.3116888 L32.3862304,34.2729077 C32.4740686,34.1375537 32.6550915,34.099533 32.7910497,34.1869807 C32.9247164,34.2736681 32.9629069,34.4516053 32.8788878,34.5861988 C32.8788878,34.5861988 32.8254211,34.6713653 32.7314725,34.8196463 C32.6802972,34.8918857 32.6352325,34.9892189 32.5512134,35.0812292 C32.4679581,35.1732394 32.3732456,35.2766559 32.2701313,35.3899578 C32.1517407,35.4865305 32.0188378,35.5907074 31.8760053,35.6933635 C31.7171329,35.769405 31.5605518,35.8804257 31.374946,35.9336548 C31.2832888,35.9640714 31.1908678,35.994488 31.0969192,36.025665 C31.0006791,36.0484775 30.9021476,36.0614045 30.8036161,36.0796545 C30.607317,36.1237586 30.4041435,36.1085503 30.2024977,36.1161544 C29.8022613,36.0963836 29.4096629,36.0142588 29.0583103,35.8887902 C28.8864531,35.8165508 28.7161235,35.7541967 28.5671805,35.6659886 C28.4144185,35.5853845 28.2761689,35.4971763 28.1547231,35.3998432 C28.0271669,35.3161975 27.9293992,35.2006144 27.8354506,35.1146874 C27.7430296,35.0135522 27.6651209,34.8918857 27.6063076,34.8051984 C27.5337456,34.6546362 27.4993742,34.5740321 27.4993742,34.5740321 L27.4955551,34.5633863 C27.4283399,34.4036991 27.5047208,34.220439 27.6651209,34.1542829 C27.825521,34.0873663 28.0095992,34.1634079 28.0760507,34.3230951 L28.0768145,34.3246159 Z" id="Fill-59" fill="#9C754A"></path>
                                    <path d="M37.848923,34.573728 C37.848923,34.573728 37.8153153,34.654332 37.7419896,34.8048942 C37.6831762,34.8915816 37.6060314,35.013248 37.5136104,35.1143833 C37.4196618,35.2010706 37.3218941,35.3166537 37.1943378,35.399539 C37.072892,35.4968722 36.9346424,35.5850804 36.7818804,35.6656844 C36.6321737,35.754653 36.4626079,35.8162466 36.2907506,35.8884861 C35.9386342,36.0139546 35.5467997,36.0960795 35.1457995,36.1166107 C34.9441536,36.1090065 34.741744,36.1234544 34.544681,36.0793503 C34.4461495,36.0611004 34.347618,36.0481733 34.2521418,36.0253608 C34.1581932,35.9941838 34.0650083,35.9637672 33.9733512,35.934111 C33.7885091,35.8808819 33.6319281,35.7691009 33.4730556,35.6930593 C33.3294593,35.5904033 33.1965564,35.4869868 33.0781659,35.3896536 C32.9750515,35.2763517 32.8803391,35.1729353 32.7970838,35.080925 C32.7138285,34.9889147 32.6679999,34.8915816 32.6168246,34.8193421 C32.522876,34.6710611 32.4694093,34.586655 32.4694093,34.586655 C32.3838626,34.4497803 32.4243445,34.2703222 32.5618303,34.1851557 C32.6970247,34.0999892 32.8749924,34.1395308 32.9628306,34.2726035 L32.9888001,34.3121451 C32.9888001,34.3121451 33.0331011,34.3813429 33.1117735,34.5014885 C33.1545469,34.5585197 33.1904459,34.6414049 33.258425,34.712884 C33.3248765,34.7858838 33.4004937,34.8672483 33.4814575,34.9562169 C33.5769338,35.0292168 33.6808119,35.1067791 33.7908006,35.1904248 C33.9168292,35.2444143 34.0336921,35.3349037 34.1811075,35.3729245 C34.2529056,35.3964974 34.3254676,35.4200702 34.3987933,35.4444035 C34.4751743,35.4611327 34.5553744,35.4702576 34.633283,35.4839451 C34.7891002,35.5212055 34.9579022,35.5037159 35.1213575,35.5113201 C35.4520873,35.4915493 35.7820532,35.4208307 36.0768838,35.3136121 C36.2189525,35.2520184 36.3633126,35.1995498 36.4832307,35.1257895 C36.6092594,35.0581125 36.7200118,34.9858731 36.8131966,34.9098315 C36.916311,34.842915 36.9781796,34.7592693 37.0499777,34.6969153 C37.1049721,34.6330404 37.1309416,34.5881759 37.1698959,34.5493947 C37.2355836,34.4132803 37.2714826,34.3243117 37.2714826,34.3243117 C37.3379341,34.1646245 37.5212485,34.0878226 37.6816486,34.1532183 C37.8428125,34.2193744 37.9199573,34.4018741 37.8535058,34.5615613 L37.8535058,34.5630822 L37.848923,34.573728 Z" id="Fill-61" fill="#9C754A"></path>
                                    <path d="M21.9558705,22.5990875 C22.1559887,24.5290216 20.8514013,23.7480751 19.7331835,23.713096 C18.6142019,23.6773564 17.3867592,23.6385753 17.7449861,22.4660148 C17.9832948,21.6881099 18.698221,21.0235069 19.8172026,21.0592464 C20.9361842,21.0942255 21.8726152,21.790766 21.9558705,22.5990875" id="Fill-63" fill="#FFFFFF"></path>
                                    <path d="M42.1714764,22.5419043 C41.9308762,24.4672759 43.2507399,23.7144647 44.3704853,23.7038189 C45.4894669,23.6924127 46.7176734,23.680246 46.3846522,22.5000814 C46.1639111,21.717614 45.4627336,21.0370423 44.343752,21.0484485 C43.2240065,21.0598548 42.2730631,21.7351036 42.1714764,22.5419043" id="Fill-65" fill="#FFFFFF"></path>
                                    <path d="M22.724187,28.1722475 C22.724187,29.5729326 21.5838187,30.7082327 20.1768807,30.7082327 C18.7691789,30.7082327 17.6288106,29.5729326 17.6288106,28.1722475 C17.6288106,26.7715625 18.7691789,25.8256058 20.1768807,25.8256058 C21.5838187,25.8256058 22.724187,26.7715625 22.724187,28.1722475" id="Fill-67" fill="#3B4F5B"></path>
                                    <path d="M21.5180546,27.8391856 C21.5180546,28.2460078 21.1865611,28.5752676 20.7779228,28.5752676 C20.3700482,28.5752676 20.0385547,28.2460078 20.0385547,27.8391856 C20.0385547,27.4323634 20.3700482,27.1023431 20.7779228,27.1023431 C21.1865611,27.1023431 21.5180546,27.4323634 21.5180546,27.8391856" id="Fill-69" fill="#FFFFFF"></path>
                                    <path d="M19.791233,29.0440637 C19.791233,29.216678 19.6499282,29.3565944 19.4773071,29.3565944 C19.3031585,29.3565944 19.1626174,29.216678 19.1626174,29.0440637 C19.1626174,28.870689 19.3031585,28.7307726 19.4773071,28.7307726 C19.6499282,28.7307726 19.791233,28.870689 19.791233,29.0440637" id="Fill-71" fill="#FFFFFF"></path>
                                    <path d="M41.862668,28.1722475 C41.862668,29.5729326 43.0030363,30.7082327 44.4099743,30.7082327 C45.8176761,30.7082327 46.9580444,29.5729326 46.9580444,28.1722475 C46.9580444,26.7715625 45.8176761,25.8256058 44.4099743,25.8256058 C43.0030363,25.8256058 41.862668,26.7715625 41.862668,28.1722475" id="Fill-73" fill="#3B4F5B"></path>
                                    <path d="M43.0688003,27.8391856 C43.0688003,28.2460078 43.4002939,28.5752676 43.8089322,28.5752676 C44.2175705,28.5752676 44.5483003,28.2460078 44.5483003,27.8391856 C44.5483003,27.4323634 44.2175705,27.1023431 43.8089322,27.1023431 C43.4002939,27.1023431 43.0688003,27.4323634 43.0688003,27.8391856" id="Fill-75" fill="#FFFFFF"></path>
                                    <path d="M44.7955456,29.0440637 C44.7955456,29.216678 44.9360866,29.3565944 45.1094715,29.3565944 C45.2836201,29.3565944 45.4241612,29.216678 45.4241612,29.0440637 C45.4241612,28.870689 45.2836201,28.7307726 45.1094715,28.7307726 C44.9360866,28.7307726 44.7955456,28.870689 44.7955456,29.0440637" id="Fill-77" fill="#FFFFFF"></path>
                                    <polygon id="Fill-79" fill="#A3A6C9" points="32.6753325 6.70610283 38.658256 12.6624361 32.6753325 18.6187695"></polygon>
                                    <path d="M63.8744494,40.4280135 C57.8182001,40.0744204 55.4656654,42.8537385 54.5727715,44.5715167 C53.8586092,45.6262128 53.441569,46.8976272 53.441569,48.2656144 C53.441569,51.9201705 56.4166088,54.8819882 60.0874796,54.8819882 C61.9412464,54.8819882 63.6170455,54.1261354 64.8223376,52.9071896 C64.7589414,53.1261892 64.6779775,53.3489909 64.5740994,53.5702718 C64.4977184,53.7033445 64.4037697,53.9162607 64.3541221,53.9923023 C64.3258611,54.0447709 64.2998916,54.0995208 64.2746858,54.156552 C64.225802,54.2348748 64.1035924,54.3740308 64.0211009,54.4797285 C63.824038,54.762603 63.646834,54.9473839 63.3894301,55.1876752 C62.8853155,55.6363202 62.220037,56.0096842 61.5249699,56.2499754 C60.8260838,56.4940687 60.0920624,56.6111727 59.3717896,56.6453914 C59.0135627,56.6187768 58.6553359,56.6514747 58.3093299,56.5830373 C58.1344175,56.5609853 57.9625602,56.5396936 57.7937582,56.518402 C57.6249562,56.4781 57.4599732,56.4385584 57.2972817,56.3997772 C56.966552,56.3419857 56.6602642,56.218038 56.3608507,56.1184236 C56.0583819,56.0324966 55.7834103,55.8918198 55.5198959,55.7724346 C54.9630784,55.5458308 54.6124897,55.2895708 54.2489161,55.1116337 C53.8670111,54.870582 51.4602459,53.2166786 51.4602459,53.2166786 C50.503192,52.5262215 50.6536625,53.6029696 49.8065973,54.4728848 C48.8778044,55.4264456 48.9014825,56.9495575 49.860064,57.8734621 L49.8631192,57.8765038 C49.8631192,57.8765038 49.968525,57.9783995 50.1663518,58.1692637 C50.3779271,58.3654509 50.6223463,58.629315 51.0554266,59.0072414 C51.5473202,59.3897303 52.1606596,59.9334273 52.874822,60.3638224 C53.2315212,60.595749 53.6073157,60.8512486 54.0487979,61.0656857 C54.4811143,61.2900082 54.9309984,61.5386641 55.447334,61.7272471 C55.7016827,61.8276219 55.9613781,61.930278 56.2256563,62.0352153 C56.5029193,62.1165797 56.7847652,62.199465 57.071194,62.2846315 C57.6409962,62.4709333 58.2680842,62.5507769 58.9051017,62.6701621 C60.1959406,62.8252868 61.6005871,62.827568 63.0426604,62.5682664 C64.4839698,62.3082044 65.9535402,61.8010073 67.3520762,60.9470609 C67.6973183,60.7136134 68.0517262,60.5143846 68.3855111,60.2322705 L68.8896257,59.8201254 L69.3502031,59.392772 C69.4640108,59.2832722 69.5487937,59.2163556 69.6870433,59.0718767 L70.1529674,58.5509922 C70.484461,58.1829512 70.6807601,57.8856288 70.9427469,57.5426815 C71.8944542,56.1845797 72.7438109,54.6059575 72.9339995,52.8349501 C73.8635563,44.1897882 67.7019012,40.6515757 63.8744494,40.4280135" id="Fill-81" fill="#7579A3"></path>
                                    <path d="M62.3892973,62.6256017 C59.3875241,63.2080799 55.9282287,62.0948318 54.604546,61.3541873 C52.0327978,59.9139607 51.9212816,59.4896489 50.9237458,58.891202 C51.1467783,57.7247249 51.276626,57.2464237 51.3644641,56.5247895 C54.7298109,62.7769244 60.3239551,62.6468934 62.3892973,62.6256017" id="Fill-83" fill="#5E5884"></path>
                                    <path d="M60.2888199,48.2656904 C63.3180902,45.9981319 65.992189,48.7660437 65.6148668,51.0982376 C65.2841371,53.1376715 62.3992268,55.0539181 60.0879378,54.8782622 C63.0660329,54.6379709 64.6303158,52.2145273 64.7846054,51.0229564 C64.9358398,49.8557189 64.0246145,47.3813274 60.2888199,48.2656904" id="Fill-85" fill="#5E5884"></path>
                                    <path d="M0.444613787,3.39304926 C0.444613787,3.39304926 0.475929996,3.11397684 0.582863393,2.76114412 C0.634038661,2.58092569 0.707364419,2.37941562 0.802840666,2.17182224 C0.853252124,2.06992658 0.894497863,1.95738511 0.957894091,1.85624987 C1.01823508,1.75207297 1.07857607,1.64637524 1.13968086,1.54067751 C1.27945809,1.33916745 1.41847151,1.13613655 1.57810779,0.964282686 C1.73316122,0.788626743 1.89508893,0.636543676 2.05014236,0.519439715 C2.3518473,0.277627639 2.6199446,0.180294476 2.6199446,0.180294476 L2.65966272,0.21223192 C2.65966272,0.21223192 2.50842834,0.401575338 2.29990822,0.698897734 C2.09062428,0.995459714 1.82710984,1.40076109 1.57276112,1.81366661 C1.30695525,2.2197284 1.04038557,2.62579019 0.841794974,2.93071674 C0.637857711,3.23336204 0.485859526,3.42346588 0.485859526,3.42346588 L0.444613787,3.39304926 Z" id="Fill-87" fill="#5E5884"></path>
                                    <path d="M73.7062114,1.08465643 C73.7062114,1.08465643 73.6642019,1.11735429 73.5870571,1.17970835 C73.5083846,1.24206241 73.398396,1.33787474 73.2349407,1.43292666 C73.0753044,1.53558273 72.8774776,1.65724918 72.6536813,1.78575937 C72.4306488,1.9211133 72.1763,2.06711305 71.8891075,2.20474822 C71.3177776,2.48686231 70.6578458,2.83057004 69.9284073,3.14462157 C69.5633061,3.30126713 69.1890392,3.46931892 68.80026,3.61912074 C68.4122445,3.77120381 68.0181185,3.92480771 67.6239926,4.07917202 C66.826575,4.36356735 66.0291574,4.64796269 65.2684026,4.87684771 C64.5107031,5.11485771 63.7866113,5.2882324 63.168689,5.44715921 C62.8616374,5.53080489 62.5729172,5.5855548 62.3147494,5.62965889 C62.0604007,5.67908588 61.834313,5.71406499 61.6479433,5.74067953 C61.4661566,5.7741378 61.311867,5.7741378 61.211044,5.77793988 C61.1102211,5.78174195 61.0559906,5.7840232 61.0559906,5.7840232 L61.0514077,5.73231496 C61.0514077,5.73231496 61.102583,5.72242956 61.1988231,5.70417959 C61.2950631,5.68669004 61.436368,5.65931508 61.6135719,5.60684643 C61.9695073,5.51407576 62.4736219,5.3574302 63.0739766,5.15820138 C64.2746858,4.76126457 65.8634106,4.19171349 67.4437334,3.59782911 C69.0271115,3.01535097 70.6020877,2.40777911 71.7707169,1.92339455 C72.3542678,1.6831033 72.8392871,1.47170784 73.1684892,1.3112602 C73.3357636,1.23597908 73.462556,1.16450004 73.547339,1.11507305 C73.6336495,1.06640646 73.6794781,1.04055234 73.6794781,1.04055234 L73.7062114,1.08465643 Z" id="Fill-89" fill="#5E5884"></path>
                                </g>
                            </g>
                        </g>
                    </g>
                </g>
            </g>
        </g>
    </g>
</svg>